<?xml version="1.0" encoding="UTF-8"?>
<svg version="1.1" xmlns="http://www.w3.org/2000/svg" width="280" height="278">
<path d="M0 0 C1.32911682 0.34976758 2.66082739 0.69096017 4 1 C4 1.66 4 2.32 4 3 C6.31 3.33 8.62 3.66 11 4 C11 4.66 11 5.32 11 6 C13.97 6.99 16.94 7.98 20 9 C20 9.66 20 10.32 20 11 C22.14464786 12.56288033 22.14464786 12.56288033 24.8125 14.0625 C25.70582031 14.58972656 26.59914062 15.11695312 27.51953125 15.66015625 C30.01796517 17.10189695 30.01796517 17.10189695 33 18 C33.556875 18.70125 34.11375 19.4025 34.6875 20.125 C38.28147557 24.59318584 42.48197122 29.16065707 48 31 C48 31.66 48 32.32 48 33 C48.66 33.33 49.32 33.66 50 34 C51.35386936 35.65002828 52.68678142 37.3174387 54 39 C54.66 39.66 55.32 40.32 56 41 C58.40551937 43.94870116 60.73274608 46.94413603 63 50 C63.495 50.639375 63.99 51.27875 64.5 51.9375 C67.680018 56.31002475 70.09060315 61.04563876 72.5 65.875 C73.0878125 67.04804687 73.675625 68.22109375 74.28125 69.4296875 C76.71129499 74.47755368 78.97343062 79.47748685 80.5 84.875 C81.40609343 88.03921109 82.40794892 91.1067632 83.5625 94.1875 C87.17758147 105.09196672 87.35159087 117.01704492 87.31567383 128.40673828 C87.31250068 130.49954852 87.33615389 132.59095494 87.36132812 134.68359375 C87.40443506 144.15880265 86.1498315 152.77049008 84 162 C83.66196466 163.66571936 83.32736923 165.3321516 83 167 C82.11773385 170.89363737 80.67949142 174.37229853 79 178 C78.2575 179.7325 78.2575 179.7325 77.5 181.5 C76.7575 183.2325 76.7575 183.2325 76 185 C75.2884375 186.7015625 75.2884375 186.7015625 74.5625 188.4375 C73.10494514 191.76072508 71.53027941 194.98007866 69.8671875 198.203125 C68.87608046 200.15919337 68.87608046 200.15919337 68 203 C67.34 203.66 66.68 204.32 66 205 C64.14003054 207.27996257 62.31578461 209.57437726 60.5625 211.9375 C57.00065024 216.63914169 53.21896829 220.88148334 49 225 C47.76949946 226.22783134 46.5403949 227.45706288 45.3125 228.6875 C43.54166667 230.45833333 41.77083333 232.22916667 40 234 C39.071875 234.99 39.071875 234.99 38.125 236 C36.10575158 237.9004691 34.46078885 238.80929572 32 240 C30.97895449 240.97850195 29.9793879 241.97980427 29 243 C25.89450529 245.67715061 22.92102817 246.8415144 19 248 C19 248.66 19 249.32 19 250 C17.35 250.33 15.7 250.66 14 251 C14 251.66 14 252.32 14 253 C10.28095248 254.98925797 7.11655152 256.21589495 3 257 C1.19716898 257.68031359 -0.60535273 258.36145887 -2.40625 259.046875 C-36.22183043 271.47308227 -71.62483285 271.21319036 -105.30859375 258.37890625 C-108.82192593 256.94908605 -108.82192593 256.94908605 -111.9375 256.4375 C-112.618125 256.293125 -113.29875 256.14875 -114 256 C-114.33 255.34 -114.66 254.68 -115 254 C-116.3921875 253.5359375 -116.3921875 253.5359375 -117.8125 253.0625 C-120.87215613 252.04261462 -122.4960505 250.93854155 -125 249 C-125.845625 248.67 -126.69125 248.34 -127.5625 248 C-130.05999873 246.97538513 -131.20825372 245.96238878 -133 244 C-133.66 243.67 -134.32 243.34 -135 243 C-135.825 242.154375 -136.65 241.30875 -137.5 240.4375 C-139.65673014 237.76729995 -139.65673014 237.76729995 -142 238 C-143.66666667 236 -145.33333333 234 -147 232 C-147.66 232 -148.32 232 -149 232 C-150.65625 230.3203125 -150.65625 230.3203125 -152.5 228.125 C-154.28933258 226.00964496 -156.04019124 223.95980876 -158 222 C-159.33333333 220.33333333 -160.66666667 218.66666667 -162 217 C-162.66 216.34 -163.32 215.68 -164 215 C-165.01405257 213.67732273 -166.01268258 212.34275169 -167 211 C-167.474375 210.38125 -167.94875 209.7625 -168.4375 209.125 C-174 201.56 -174 201.56 -174 199 C-174.43441406 198.5875 -174.86882812 198.175 -175.31640625 197.75 C-187.43640952 185.15194556 -192.12003662 157.39865169 -192.203125 140.53515625 C-192.20882507 139.62479111 -192.21452515 138.71442596 -192.22039795 137.776474 C-192.22981968 135.85091298 -192.23637066 133.92533605 -192.24023438 131.99975586 C-192.24986517 129.1030523 -192.28088437 126.20708198 -192.3125 123.31054688 C-192.39884484 108.20514973 -190.65745775 95.13228401 -185 81 C-184.47689072 79.56332666 -183.95586401 78.12589228 -183.4375 76.6875 C-182.12810733 73.32862314 -180.66609191 70.19334282 -179 67 C-178.484375 65.9275 -177.96875 64.855 -177.4375 63.75 C-176 61 -176 61 -174 59 C-173.71125 58.236875 -173.4225 57.47375 -173.125 56.6875 C-171.83979472 53.61728738 -170.14384298 51.53363261 -168 49 C-167.505 48.34 -167.01 47.68 -166.5 47 C-163.25478842 42.67305123 -159.82390802 38.82390802 -156 35 C-155.09538109 33.90301959 -154.19945919 32.79880769 -153.3125 31.6875 C-152.1678125 30.3571875 -152.1678125 30.3571875 -151 29 C-150.34 29 -149.68 29 -149 29 C-149 28.34 -149 27.68 -149 27 C-147.37946188 25.61096733 -145.70294787 24.28667172 -144 23 C-143.154375 22.319375 -142.30875 21.63875 -141.4375 20.9375 C-135.55036855 16.25798526 -135.55036855 16.25798526 -133 15.0625 C-130.83758423 14.0388253 -130.83758423 14.0388253 -128.9375 11.9375 C-127 10 -127 10 -124 9 C-122.66201766 8.00622888 -121.32920198 7.00548489 -120 6 C-118.39724254 5.08489426 -116.77059908 4.21061573 -115.125 3.375 C-113.89136719 2.73691406 -113.89136719 2.73691406 -112.6328125 2.0859375 C-109.73458468 0.89052603 -107.09094087 0.51328351 -104 0 C-101.0729768 -0.88976898 -98.19753594 -1.92094928 -95.3125 -2.9375 C-64.32117105 -13.51571537 -30.55784208 -10.2160833 0 0 Z " fill="#BE3D55" transform="translate(193,9)"/>
<path d="M0 0 C0.76618652 0.19754883 1.53237305 0.39509766 2.32177734 0.59863281 C20.93902197 5.47507915 38.54167966 15.2833129 53 28 C53 28.66 53 29.32 53 30 C54.11375 30.37125 54.11375 30.37125 55.25 30.75 C58.26350999 32.11977727 59.78369093 33.5692094 62 36 C62.721875 36.680625 63.44375 37.36125 64.1875 38.0625 C66 40 66 40 67 43 C67.825 43.825 68.65 44.65 69.5 45.5 C72 48 72 48 73 51 C73.66 51 74.32 51 75 51 C77.4627201 53.67686967 78.68736495 56.59123379 80.08325195 59.91040039 C81.09359687 62.21334105 82.18862692 64.46126422 83.3046875 66.71484375 C96.87683428 94.19785021 103.42658419 128.77038746 94.38671875 159.0546875 C93.93777855 160.37439091 93.47477855 161.68937048 93 163 C92.72623535 163.76473633 92.4524707 164.52947266 92.17041016 165.31738281 C78.2712591 202.96939202 52.27616983 227.1688931 16.57421875 244.1015625 C14 245 14 245 11 244 C11.66 244 12.32 244 13 244 C13 243.34 13 242.68 13 242 C12.33468262 242.176521 11.66936523 242.35304199 10.98388672 242.53491211 C7.94833035 243.3385972 4.91168329 244.13808398 1.875 244.9375 C0.82828125 245.21529297 -0.2184375 245.49308594 -1.296875 245.77929688 C-2.82441406 246.18051758 -2.82441406 246.18051758 -4.3828125 246.58984375 C-5.31496582 246.83597412 -6.24711914 247.08210449 -7.20751953 247.33569336 C-15.24380615 249.24745555 -23.16719045 249.2400113 -31.375 249.25 C-32.45181534 249.25250763 -32.45181534 249.25250763 -33.55038452 249.25506592 C-59.1120308 249.25864613 -59.1120308 249.25864613 -67 244 C-62.95200568 244.41875803 -58.93360413 244.84499095 -54.91796875 245.51171875 C-45.19441284 247.10778555 -35.8157113 247.3679539 -26 247 C-24.72253906 246.96648437 -23.44507813 246.93296875 -22.12890625 246.8984375 C3.87383378 245.06541454 29.69519873 233.13949181 49 216 C49.82628906 215.31679687 50.65257812 214.63359375 51.50390625 213.9296875 C61.93132411 205.08514841 70.18515081 193.8009034 77 182 C77.49886719 181.13890625 77.99773437 180.2778125 78.51171875 179.390625 C86.73112076 164.1167756 93.45463899 144.51697302 93 127 C92.36835938 127.53367188 91.73671875 128.06734375 91.0859375 128.6171875 C71.85356421 144.63492779 51.72549927 155.85052103 28 164 C26.89060059 164.38478516 26.89060059 164.38478516 25.75878906 164.77734375 C9.74376635 170.22112731 -7.08934594 172.76737422 -24 172 C-24.33 172.66 -24.66 173.32 -25 174 C-25 169.05 -25 164.1 -25 159 C-12.79 159 -0.58 159 12 159 C12 158.34 12 157.68 12 157 C13.23363281 156.65388672 13.23363281 156.65388672 14.4921875 156.30078125 C31.75954224 151.25616145 41.69519289 144.33403415 51 129 C56.71670941 117.409959 57.94378469 104.6708423 54.375 92.1875 C51.51507611 83.97153491 47.55330173 76.80860835 41 71 C40.30261719 70.30003906 39.60523438 69.60007812 38.88671875 68.87890625 C28.93607287 59.21392485 18.44551435 55.81785257 4.875 55.75 C3.86695313 55.729375 2.85890625 55.70875 1.8203125 55.6875 C-4.69645956 55.65373434 -9.98929342 56.47100866 -16 59 C-17.20076172 59.495 -17.20076172 59.495 -18.42578125 60 C-32.7808608 67.60848937 -41.66080338 79.43111725 -46.53697205 94.67913818 C-47.18392783 97.9219121 -47.17809642 101.13697994 -47.20532227 104.43066406 C-47.21522186 105.17251953 -47.22512146 105.914375 -47.23532104 106.67871094 C-47.26684147 109.12431679 -47.29165595 111.56994205 -47.31640625 114.015625 C-47.33698395 115.7138519 -47.35798064 117.41207377 -47.37937927 119.11029053 C-47.43451567 123.5752759 -47.48396207 128.04030685 -47.53222656 132.50537109 C-47.58250322 137.06351772 -47.63815709 141.62159834 -47.69335938 146.1796875 C-47.80083778 155.11973525 -47.90230559 164.05984036 -48 173 C-48.99 173 -49.98 173 -51 173 C-51.00142502 172.24990662 -51.00285004 171.49981323 -51.00431824 170.72698975 C-51.02225521 163.60779568 -51.06418161 156.48922243 -51.13209057 149.37035751 C-51.1661717 145.71166776 -51.19144071 142.05338715 -51.19555664 138.39453125 C-51.19988077 134.85388842 -51.22867641 131.31416557 -51.27343178 127.77381134 C-51.29246676 125.78677676 -51.28708965 123.79955554 -51.28105164 121.81243896 C-51.4582562 110.6227044 -54.20002832 100.83641999 -62.125 92.62109375 C-68.35164089 87.23764382 -73.50754024 86.84924598 -82 86 C-82 113.06 -82 140.12 -82 168 C-100.90904618 163.27273846 -100.90904618 163.27273846 -109.4375 159.875 C-110.41195068 159.48884521 -111.38640137 159.10269043 -112.39038086 158.70483398 C-128.74170127 152.02242362 -143.32241481 142.09404132 -157 131 C-156.7303473 151.9593688 -151.55107871 177.82821589 -136 193 C-133.40687702 196.25319065 -131.23738715 199.5252257 -129.375 203.25 C-122.17013382 215.89355894 -105.94192425 227.89675777 -93 234 C-93 235.32 -93 236.64 -93 238 C-105.77629161 234.05438053 -115.33643698 225.8740917 -125 217 C-125.55333008 216.50258301 -126.10666016 216.00516602 -126.67675781 215.49267578 C-144.31005171 199.52003374 -156.87996476 178.67413589 -162.9921875 155.7421875 C-163.92018309 152.0967614 -163.92018309 152.0967614 -165.0703125 149.0078125 C-173.23307449 122.59887665 -166.64170288 87.19499682 -154.125 63.25 C-153.10471385 61.48744912 -152.0625907 59.73737458 -151 58 C-150.43925781 57.071875 -149.87851563 56.14375 -149.30078125 55.1875 C-142.01053325 43.69427884 -132.88251462 32.2691509 -122 24 C-121.03320312 23.2471875 -120.06640625 22.494375 -119.0703125 21.71875 C-84.0449428 -4.83341027 -42.3049294 -11.37220661 0 0 Z " fill="#D30910" transform="translate(174,13)"/>
<path d="M0 0 C3.53538938 2.46939369 6.77457916 5.14368542 10 8 C11.2684375 8.97259766 11.2684375 8.97259766 12.5625 9.96484375 C20.81269284 16.85322591 26.41986615 28.44981341 28 39 C29.08139744 54.03319721 25.89638261 65.74725486 17 78 C16.5771875 78.59554687 16.154375 79.19109375 15.71875 79.8046875 C8.0610672 89.7907198 -4.82582976 95.91510864 -17 98 C-23.5494691 98.47035318 -30.12735968 98.28461035 -36.6875 98.1875 C-38.46808761 98.17242264 -40.2486876 98.15873965 -42.02929688 98.14648438 C-46.35317507 98.11372792 -50.67644799 98.06211542 -55 98 C-54.98889694 98.60419769 -54.97779388 99.20839539 -54.96635437 99.8309021 C-54.855152 106.15811274 -54.78008181 112.48504275 -54.7253418 118.81298828 C-54.70030292 121.16987395 -54.66626159 123.52668279 -54.62280273 125.88330078 C-54.5616841 129.28437328 -54.53368273 132.6844132 -54.51171875 136.0859375 C-54.48591232 137.12801361 -54.4601059 138.17008972 -54.43351746 139.2437439 C-54.43043556 147.4066504 -56.39554882 154.26612508 -62.17578125 160.25390625 C-62.88089844 160.68574219 -63.58601562 161.11757812 -64.3125 161.5625 C-65.00988281 162.01753906 -65.70726562 162.47257813 -66.42578125 162.94140625 C-69.93051225 164.38265375 -73.23411504 164.57443704 -77 165 C-77.07021818 148.48360118 -77.12305072 131.96725112 -77.15543652 115.45073891 C-77.17087644 107.78107322 -77.19191065 100.11150052 -77.22631836 92.44189453 C-77.25630911 85.75363009 -77.27559588 79.06543303 -77.28226548 72.37710321 C-77.28616144 68.8387768 -77.29525672 65.30064308 -77.31719017 61.76237869 C-77.34153098 57.80330158 -77.3419638 53.84440945 -77.34057617 49.88525391 C-77.35675491 48.14384125 -77.35675491 48.14384125 -77.3732605 46.36724854 C-77.3209814 32.53990653 -72.87128002 20.71712931 -63.1875 10.6875 C-46.74234938 -4.89211638 -20.71475048 -12.35772668 0 0 Z " fill="#FBF9F9" transform="translate(203,73)"/>
<path d="M0 0 C1.32911682 0.34976758 2.66082739 0.69096017 4 1 C4 1.66 4 2.32 4 3 C6.31 3.33 8.62 3.66 11 4 C11 4.66 11 5.32 11 6 C13.97 6.99 16.94 7.98 20 9 C20 9.66 20 10.32 20 11 C22.14464786 12.56288033 22.14464786 12.56288033 24.8125 14.0625 C25.70582031 14.58972656 26.59914062 15.11695312 27.51953125 15.66015625 C30.01796517 17.10189695 30.01796517 17.10189695 33 18 C33.556875 18.70125 34.11375 19.4025 34.6875 20.125 C38.28147557 24.59318584 42.48197122 29.16065707 48 31 C48 31.66 48 32.32 48 33 C48.66 33.33 49.32 33.66 50 34 C51.35386936 35.65002828 52.68678142 37.3174387 54 39 C54.66 39.66 55.32 40.32 56 41 C58.40551937 43.94870116 60.73274608 46.94413603 63 50 C63.495 50.639375 63.99 51.27875 64.5 51.9375 C67.680018 56.31002475 70.09060315 61.04563876 72.5 65.875 C73.0878125 67.04804687 73.675625 68.22109375 74.28125 69.4296875 C76.71129499 74.47755368 78.97343062 79.47748685 80.5 84.875 C81.40609343 88.03921109 82.40794892 91.1067632 83.5625 94.1875 C87.17758147 105.09196672 87.35159087 117.01704492 87.31567383 128.40673828 C87.31250068 130.49954852 87.33615389 132.59095494 87.36132812 134.68359375 C87.40443506 144.15880265 86.1498315 152.77049008 84 162 C83.66196466 163.66571936 83.32736923 165.3321516 83 167 C82.11773385 170.89363737 80.67949142 174.37229853 79 178 C78.2575 179.7325 78.2575 179.7325 77.5 181.5 C76.7575 183.2325 76.7575 183.2325 76 185 C75.2884375 186.7015625 75.2884375 186.7015625 74.5625 188.4375 C73.10494514 191.76072508 71.53027941 194.98007866 69.8671875 198.203125 C68.87608046 200.15919337 68.87608046 200.15919337 68 203 C67.34 203.66 66.68 204.32 66 205 C64.14003054 207.27996257 62.31578461 209.57437726 60.5625 211.9375 C57.00065024 216.63914169 53.21896829 220.88148334 49 225 C47.76949946 226.22783134 46.5403949 227.45706288 45.3125 228.6875 C43.54166667 230.45833333 41.77083333 232.22916667 40 234 C39.071875 234.99 39.071875 234.99 38.125 236 C36.10575158 237.9004691 34.46078885 238.80929572 32 240 C30.97895449 240.97850195 29.9793879 241.97980427 29 243 C25.89450529 245.67715061 22.92102817 246.8415144 19 248 C19 248.66 19 249.32 19 250 C17.35 250.33 15.7 250.66 14 251 C14 251.66 14 252.32 14 253 C10.28095248 254.98925797 7.11655152 256.21589495 3 257 C1.19716898 257.68031359 -0.60535273 258.36145887 -2.40625 259.046875 C-36.22183043 271.47308227 -71.62483285 271.21319036 -105.30859375 258.37890625 C-108.82192593 256.94908605 -108.82192593 256.94908605 -111.9375 256.4375 C-112.618125 256.293125 -113.29875 256.14875 -114 256 C-114.33 255.34 -114.66 254.68 -115 254 C-116.3921875 253.5359375 -116.3921875 253.5359375 -117.8125 253.0625 C-120.87215613 252.04261462 -122.4960505 250.93854155 -125 249 C-125.845625 248.67 -126.69125 248.34 -127.5625 248 C-130.05999873 246.97538513 -131.20825372 245.96238878 -133 244 C-133.66 243.67 -134.32 243.34 -135 243 C-135.825 242.154375 -136.65 241.30875 -137.5 240.4375 C-139.65673014 237.76729995 -139.65673014 237.76729995 -142 238 C-143.66666667 236 -145.33333333 234 -147 232 C-147.66 232 -148.32 232 -149 232 C-150.65625 230.3203125 -150.65625 230.3203125 -152.5 228.125 C-154.28933258 226.00964496 -156.04019124 223.95980876 -158 222 C-159.33333333 220.33333333 -160.66666667 218.66666667 -162 217 C-162.66 216.34 -163.32 215.68 -164 215 C-165.01405257 213.67732273 -166.01268258 212.34275169 -167 211 C-167.474375 210.38125 -167.94875 209.7625 -168.4375 209.125 C-174 201.56 -174 201.56 -174 199 C-174.43441406 198.5875 -174.86882812 198.175 -175.31640625 197.75 C-187.43640952 185.15194556 -192.12003662 157.39865169 -192.203125 140.53515625 C-192.20882507 139.62479111 -192.21452515 138.71442596 -192.22039795 137.776474 C-192.22981968 135.85091298 -192.23637066 133.92533605 -192.24023438 131.99975586 C-192.24986517 129.1030523 -192.28088437 126.20708198 -192.3125 123.31054688 C-192.39884484 108.20514973 -190.65745775 95.13228401 -185 81 C-184.47689072 79.56332666 -183.95586401 78.12589228 -183.4375 76.6875 C-182.12810733 73.32862314 -180.66609191 70.19334282 -179 67 C-178.484375 65.9275 -177.96875 64.855 -177.4375 63.75 C-176 61 -176 61 -174 59 C-173.71125 58.236875 -173.4225 57.47375 -173.125 56.6875 C-171.83979472 53.61728738 -170.14384298 51.53363261 -168 49 C-167.505 48.34 -167.01 47.68 -166.5 47 C-163.25478842 42.67305123 -159.82390802 38.82390802 -156 35 C-155.09538109 33.90301959 -154.19945919 32.79880769 -153.3125 31.6875 C-152.1678125 30.3571875 -152.1678125 30.3571875 -151 29 C-150.34 29 -149.68 29 -149 29 C-149 28.34 -149 27.68 -149 27 C-147.37946188 25.61096733 -145.70294787 24.28667172 -144 23 C-143.154375 22.319375 -142.30875 21.63875 -141.4375 20.9375 C-135.55036855 16.25798526 -135.55036855 16.25798526 -133 15.0625 C-130.83758423 14.0388253 -130.83758423 14.0388253 -128.9375 11.9375 C-127 10 -127 10 -124 9 C-122.66201766 8.00622888 -121.32920198 7.00548489 -120 6 C-118.39724254 5.08489426 -116.77059908 4.21061573 -115.125 3.375 C-113.89136719 2.73691406 -113.89136719 2.73691406 -112.6328125 2.0859375 C-109.73458468 0.89052603 -107.09094087 0.51328351 -104 0 C-101.0729768 -0.88976898 -98.19753594 -1.92094928 -95.3125 -2.9375 C-64.32117105 -13.51571537 -30.55784208 -10.2160833 0 0 Z M-155.359375 41.54296875 C-176.77019356 66.6361444 -186.35257363 94.78668328 -186.375 127.625 C-186.37653076 128.85629639 -186.37806152 130.08759277 -186.37963867 131.35620117 C-186.25922972 141.33130907 -185.77274478 151.59896105 -181.82421875 160.8828125 C-180.80577584 163.49890755 -180.15811092 166.16171381 -179.4375 168.875 C-170.25180369 198.85849929 -144.17696612 226.45464526 -116.92578125 241.0546875 C-105.25884517 246.99850619 -93.05546814 251.38482918 -80.28515625 254.2109375 C-77 255 -77 255 -74.62109375 256.0390625 C-65.9280002 259.22609829 -56.19295802 257.92759259 -47.125 257.375 C-46.39178528 257.33121216 -45.65857056 257.28742432 -44.90313721 257.24230957 C-33.15197404 256.50796208 -22.1259183 254.98060632 -11 251 C-10.34483398 250.77296387 -9.68966797 250.54592773 -9.01464844 250.31201172 C0.81926936 246.84539645 9.95860533 242.14144199 19 237 C19.94359375 236.48050781 20.8871875 235.96101562 21.859375 235.42578125 C30.66868988 230.25226349 37.78135282 223.14254698 45 216 C45.763125 215.26136719 46.52625 214.52273437 47.3125 213.76171875 C58.47480176 202.15757587 66.25975684 186.90092619 72 172 C72.32355469 171.175 72.64710938 170.35 72.98046875 169.5 C77.29287362 157.59163326 78.47183558 145.87014314 78.33618164 133.33203125 C78.31252286 131.00225158 78.3156578 128.67362035 78.32226562 126.34375 C78.30110273 114.30946444 77.73958984 102.20306235 73.5 90.8125 C73.1272998 89.77754395 73.1272998 89.77754395 72.74707031 88.72167969 C69.8944229 81.16300801 66.05732395 74.11455497 62.171875 67.046875 C60.54999774 64.091874 59.2173015 61.14660953 58 58 C57.34 57.01 56.68 56.02 56 55 C55.34 55 54.68 55 54 55 C53.7525 54.4225 53.505 53.845 53.25 53.25 C52.09003695 50.90550694 52.09003695 50.90550694 50.0625 49.125 C48 47 48 47 46.5625 43.9375 C44.75600267 40.54128501 43.32734749 39.78540597 40 38 C38.66666667 36.66666667 37.33333333 35.33333333 36 34 C35.34 34 34.68 34 34 34 C33.73606445 33.39188477 33.47212891 32.78376953 33.20019531 32.15722656 C31.92524886 29.86564258 30.93911696 28.94438971 28.796875 27.484375 C28.15290771 27.04158203 27.50894043 26.59878906 26.84545898 26.14257812 C25.80820679 25.45325195 25.80820679 25.45325195 24.75 24.75 C23.6827771 24.02973633 23.6827771 24.02973633 22.59399414 23.29492188 C9.53995377 14.5893303 -3.00252901 8.31185738 -18.25 4.4375 C-19.41402344 4.13392578 -20.57804688 3.83035156 -21.77734375 3.51757812 C-71.06157712 -9.14841466 -120.56830736 4.04464916 -155.359375 41.54296875 Z " fill="#B6B3B4" transform="translate(193,9)"/>
<path d="M0 0 C6.39608146 0 9.29197122 0.2888542 15 2 C17.82282451 2.43103423 20.65682509 2.67931032 23.5 2.9375 C50.50275035 5.73565517 75.61622772 14.36097162 93.9296875 35.1953125 C100.6252666 43.6897039 104.36354606 52.72831334 104.25 63.5625 C104.26160156 64.6752832 104.26160156 64.6752832 104.2734375 65.81054688 C104.25870387 69.94701404 104.02742212 73.28067984 102 77 C101.01 77.495 101.01 77.495 100 78 C99.62488281 77.33613281 99.24976563 76.67226562 98.86328125 75.98828125 C95.98686196 71.02519004 93.32623452 66.83461697 89 63 C88.30261719 62.30003906 87.60523438 61.60007813 86.88671875 60.87890625 C76.93607287 51.21392485 66.44551435 47.81785257 52.875 47.75 C51.86695313 47.729375 50.85890625 47.70875 49.8203125 47.6875 C43.30354044 47.65373434 38.01070658 48.47100866 32 51 C31.19949219 51.33 30.39898437 51.66 29.57421875 52 C16.98246474 58.67389032 8.18857204 68.89202852 3 82 C2.67 81.34 2.34 80.68 2 80 C1.34 80 0.68 80 0 80 C0 53.6 0 27.2 0 0 Z " fill="#ED2628" transform="translate(126,21)"/>
<path d="M0 0 C1.41379595 -0.04258422 2.82797103 -0.07267262 4.2421875 -0.09765625 C5.42337158 -0.12484741 5.42337158 -0.12484741 6.62841797 -0.15258789 C13.11012855 0.2644462 18.15325779 4.43661327 22.4609375 9 C26.88674089 14.7512978 29.12819075 21.60279556 29.12025452 28.80889893 C29.12162918 29.77361115 29.12300385 30.73832336 29.12442017 31.73226929 C29.12082489 32.78387238 29.11722961 33.83547546 29.11352539 34.91894531 C29.11367142 36.03143646 29.11381744 37.14392761 29.1139679 38.29013062 C29.1132709 41.96948187 29.10548839 45.64878258 29.09765625 49.328125 C29.09579132 51.87831596 29.09436777 54.42850728 29.09336853 56.97869873 C29.08993972 63.00637329 29.08205717 69.03402614 29.07201904 75.061692 C29.06083762 81.9250132 29.05534234 88.78833526 29.05032361 95.6516633 C29.03987401 109.76778559 29.02228721 123.8838918 29 138 C27.39421036 138.02601944 25.78829924 138.04461725 24.18237305 138.06005859 C23.28810104 138.07120697 22.39382904 138.08235535 21.47245789 138.09384155 C16.35489328 137.8996056 12.80962553 135.209785 9 132 C0.62971329 122.85611933 -0.31109323 113.57685963 -0.22705078 101.60522461 C-0.22748886 99.95002304 -0.22748886 99.95002304 -0.22793579 98.26138306 C-0.2265509 94.64162117 -0.2110293 91.02206934 -0.1953125 87.40234375 C-0.19157938 84.8817201 -0.18873382 82.36109499 -0.18673706 79.84046936 C-0.17990079 73.90147783 -0.16416418 67.96255283 -0.14403808 62.02359539 C-0.12160935 55.2568996 -0.11066819 48.49020006 -0.10064721 41.72347629 C-0.07979573 27.81560978 -0.04466353 13.90780898 0 0 Z " fill="#FCFCFC" transform="translate(93,99)"/>
<path d="M0 0 C0 0.33 0 0.66 0 1 C-0.86463867 1.0093457 -1.72927734 1.01869141 -2.62011719 1.02832031 C-43.71941025 1.5850438 -77.59775278 11.04238782 -107.31665039 40.88598633 C-112.9380372 46.7444972 -117.51593189 53.25325296 -122 60 C-122.721875 61.05058594 -123.44375 62.10117188 -124.1875 63.18359375 C-125.96079806 65.93908492 -127.08660337 68.61593509 -128.16015625 71.703125 C-129.11642688 74.31841397 -130.24636311 76.82941399 -131.375 79.375 C-142.36987165 105.49614962 -144.26767531 137.10983705 -135 164 C-134.51252106 165.53067733 -134.0268542 167.06193289 -133.54296875 168.59375 C-130.11495241 179.13021017 -126.30675077 189.33223006 -118 197 C-115.40200825 200.24748969 -113.23636424 203.52727151 -111.375 207.25 C-104.17013382 219.89355894 -87.94192425 231.89675777 -75 238 C-75 239.32 -75 240.64 -75 242 C-87.77629161 238.05438053 -97.33643698 229.8740917 -107 221 C-107.55333008 220.50258301 -108.10666016 220.00516602 -108.67675781 219.49267578 C-126.31005171 203.52003374 -138.87996476 182.67413589 -144.9921875 159.7421875 C-145.92018309 156.0967614 -145.92018309 156.0967614 -147.0703125 153.0078125 C-155.23307449 126.59887665 -148.64170288 91.19499682 -136.125 67.25 C-135.10471385 65.48744912 -134.0625907 63.73737458 -133 62 C-132.43925781 61.071875 -131.87851563 60.14375 -131.30078125 59.1875 C-124.01053325 47.69427884 -114.88251462 36.2691509 -104 28 C-103.03320312 27.2471875 -102.06640625 26.494375 -101.0703125 25.71875 C-72.30533329 3.91248943 -36.0239468 -6.72941486 0 0 Z " fill="#FA0F41" transform="translate(156,9)"/>
<path d="M0 0 C0.66022156 0.0028299 1.32044312 0.00565979 2.00067139 0.00857544 C4.09959397 0.01972835 6.19808242 0.04482304 8.296875 0.0703125 C9.72395215 0.08034866 11.15103602 0.0894734 12.578125 0.09765625 C16.06784828 0.11965139 19.55731923 0.15414714 23.046875 0.1953125 C23.09640206 4.53693075 23.13265454 8.87839825 23.15673828 13.22021484 C23.16678091 14.69648097 23.18041765 16.17272729 23.19775391 17.64892578 C23.22207921 19.77381284 23.2333754 21.89843635 23.2421875 24.0234375 C23.25789795 25.9401123 23.25789795 25.9401123 23.27392578 27.89550781 C22.98909941 32.03498443 22.1370693 34.07623888 19.27734375 37.01171875 C18.60316406 37.58792969 17.92898437 38.16414063 17.234375 38.7578125 C16.56792969 39.33660156 15.90148437 39.91539062 15.21484375 40.51171875 C8.74903742 45.5329125 4.08334173 45.79750006 -3.953125 45.1953125 C-10.13061449 44.02974845 -14.48845894 40.36829901 -18.28515625 35.48046875 C-22.1467667 29.02625764 -21.98722485 21.26424835 -20.515625 14.05078125 C-18.57772421 8.68521843 -14.01151737 4.16323256 -9.27416992 1.11499023 C-6.10330782 -0.14141426 -3.40566914 -0.0288616 0 0 Z " fill="#FCFAFA" transform="translate(172.953125,98.8046875)"/>
<path d="M0 0 C8.94076135 0 14.40843672 0.8079254 21 7 C22.13664288 9.27328576 22.16749827 10.64223604 22.24047852 13.17089844 C22.26622452 14.03229431 22.29197052 14.89369019 22.3184967 15.78118896 C22.40278599 19.72734977 22.46852929 23.67332548 22.51489258 27.62011719 C22.54652664 29.6998542 22.59427494 31.77941102 22.65844727 33.85839844 C22.74981359 36.85941251 22.78852213 39.85717916 22.81640625 42.859375 C22.85455948 43.78457947 22.89271271 44.70978394 22.93202209 45.6630249 C22.91293853 52.02074535 22.91293853 52.02074535 20.27120972 54.85437012 C18.14038086 56.44238281 18.14038086 56.44238281 16.02037048 57.74493408 C8.48698832 62.42471498 4.8706346 71.3846982 1 79 C0.67 79 0.34 79 0 79 C0 52.93 0 26.86 0 0 Z " fill="#FCFCFC" transform="translate(126,21)"/>
<path d="M0 0 C0.97646484 0.66322266 0.97646484 0.66322266 1.97265625 1.33984375 C3.33390625 2.17515625 3.33390625 2.17515625 4.72265625 3.02734375 C12.11254765 10.62250992 14.35248988 18.42001474 14.24609375 28.76171875 C13.59180558 37.32354676 9.15167835 43.58782724 2.97265625 49.33984375 C-4.09054251 54.81799397 -11.22301167 56.66536542 -20.1484375 56.53515625 C-21.26557884 56.53091141 -21.26557884 56.53091141 -22.4052887 56.52658081 C-24.75864476 56.51548292 -27.11160484 56.49039885 -29.46484375 56.46484375 C-31.070958 56.45480047 -32.67707829 56.44567699 -34.28320312 56.4375 C-38.19806671 56.41557782 -42.11263835 56.38112136 -46.02734375 56.33984375 C-46.10221614 51.68086145 -46.15628207 47.0222392 -46.19213867 42.36279297 C-46.20710646 40.78200164 -46.22748812 39.20125097 -46.25366211 37.62060547 C-46.46238556 24.67975128 -45.94328026 14.47356671 -37.02734375 4.33984375 C-36.54007813 3.75976562 -36.0528125 3.1796875 -35.55078125 2.58203125 C-27.16178781 -6.70418074 -10.17514632 -6.13226681 0 0 Z M-37.27734375 12.21484375 C-37.756875 12.66601562 -38.23640625 13.1171875 -38.73046875 13.58203125 C-43.14167459 19.56107531 -42.70126693 27.28957047 -42.02734375 34.33984375 C-40.32711746 40.88248669 -35.63433193 45.73758877 -30.02734375 49.33984375 C-23.61285288 51.1053958 -16.26101256 51.90594529 -10.1640625 48.953125 C-5.14390909 45.52454615 -0.78656508 41.85828641 1.97265625 36.33984375 C2.05852434 34.01568079 2.07976668 31.68901068 2.0703125 29.36328125 C2.06819008 28.33541 2.06819008 28.33541 2.06602478 27.28677368 C2.060423 25.09608614 2.04787031 22.90550045 2.03515625 20.71484375 C2.03014147 19.23047023 2.02557853 17.7460951 2.02148438 16.26171875 C2.01045302 12.6210606 1.99318724 8.98046211 1.97265625 5.33984375 C-2.1898765 5.2404628 -6.35176854 5.16813758 -10.51513672 5.12011719 C-11.9293217 5.10008532 -13.34342472 5.07285127 -14.75732422 5.03808594 C-16.79805794 4.98918886 -18.83769065 4.96679252 -20.87890625 4.94921875 C-22.10432129 4.92827148 -23.32973633 4.90732422 -24.59228516 4.88574219 C-29.86075216 5.58221331 -33.53831741 8.57853792 -37.27734375 12.21484375 Z " fill="#F01E1E" transform="translate(194.02734375,93.66015625)"/>
<path d="M0 0 C1.70884005 1.62339805 3.37446717 3.29319053 5 5 C5 5.66 5 6.32 5 7 C5.66 7 6.32 7 7 7 C9.4627201 9.67686967 10.68736495 12.59123379 12.08325195 15.91040039 C13.09359687 18.21334105 14.18862692 20.46126422 15.3046875 22.71484375 C28.87683428 50.19785021 35.42658419 84.77038746 26.38671875 115.0546875 C25.93777855 116.37439091 25.47477855 117.68937048 25 119 C24.72623535 119.76473633 24.4524707 120.52947266 24.17041016 121.31738281 C10.2712591 158.96939202 -15.72383017 183.1688931 -51.42578125 200.1015625 C-54 201 -54 201 -57 200 C-56.34 200 -55.68 200 -55 200 C-55 199.34 -55 198.68 -55 198 C-55.66531738 198.176521 -56.33063477 198.35304199 -57.01611328 198.53491211 C-60.05166965 199.3385972 -63.08831671 200.13808398 -66.125 200.9375 C-67.17171875 201.21529297 -68.2184375 201.49308594 -69.296875 201.77929688 C-70.31523437 202.04677734 -71.33359375 202.31425781 -72.3828125 202.58984375 C-73.31496582 202.83597412 -74.24711914 203.08210449 -75.20751953 203.33569336 C-83.24380615 205.24745555 -91.16719045 205.2400113 -99.375 205.25 C-100.45181534 205.25250763 -100.45181534 205.25250763 -101.55038452 205.25506592 C-127.1120308 205.25864613 -127.1120308 205.25864613 -135 200 C-130.95200568 200.41875803 -126.93360413 200.84499095 -122.91796875 201.51171875 C-113.19441284 203.10778555 -103.8157113 203.3679539 -94 203 C-92.72253906 202.96648437 -91.44507813 202.93296875 -90.12890625 202.8984375 C-64.12616622 201.06541454 -38.30480127 189.13949181 -19 172 C-18.17371094 171.31679687 -17.34742188 170.63359375 -16.49609375 169.9296875 C-6.06867589 161.08514841 2.18515081 149.8009034 9 138 C9.49886719 137.13890625 9.99773437 136.2778125 10.51171875 135.390625 C24.62067104 109.17241444 29.3645163 77.91919816 22 49 C21.8443457 48.33516602 21.68869141 47.67033203 21.52832031 46.98535156 C17.90066163 31.62753904 10.85475182 17.29645396 1.1796875 4.8125 C0 3 0 3 0 0 Z " fill="#8C0929" transform="translate(242,57)"/>
<path d="M0 0 C5.77683325 2.94505225 8.7676044 6.83597726 11.1015625 12.828125 C12.70725004 18.70298852 12.20726677 24.90354865 12.125 30.9375 C12.11597656 32.19369141 12.10695313 33.44988281 12.09765625 34.74414062 C12.07419249 37.82962522 12.04136201 40.91471205 12 44 C10.2562343 41.68867764 8.55082268 39.36469948 6.87890625 37 C3.13783437 32.54040702 -2.19650093 31.08654744 -7.49414062 29.078125 C-12.66572955 26.98373878 -15.45946787 25.24322588 -18 20 C-18.90279303 15.73483608 -18.27079741 11.88009159 -17 7.75 C-12.79377203 1.96643654 -7.25008213 -1.20834702 0 0 Z " fill="#0AD3F5" transform="translate(108,62)"/>
<path d="M0 0 C1.72265625 1.38671875 1.72265625 1.38671875 2.72265625 4.38671875 C1.51319336 4.4007373 1.51319336 4.4007373 0.27929688 4.41503906 C-3.4068496 4.46902915 -7.09176616 4.55262323 -10.77734375 4.63671875 C-12.04578125 4.65089844 -13.31421875 4.66507813 -14.62109375 4.6796875 C-24.51559997 4.93735693 -30.86329457 6.6020338 -38.05078125 13.62890625 C-42.30814278 19.73022055 -41.96357231 27.28989938 -41.27734375 34.38671875 C-39.58714115 40.63135949 -35.59347817 44.86201694 -30.27734375 48.38671875 C-25.72790699 50.41944581 -21.19199935 50.8783061 -16.27734375 51.38671875 C-16.27734375 51.71671875 -16.27734375 52.04671875 -16.27734375 52.38671875 C-19.35351562 52.6796875 -19.35351562 52.6796875 -22.4296875 52.97265625 C-23.34427734 53.17761719 -23.34427734 53.17761719 -24.27734375 53.38671875 C-24.60734375 54.04671875 -24.93734375 54.70671875 -25.27734375 55.38671875 C-31.87734375 55.38671875 -38.47734375 55.38671875 -45.27734375 55.38671875 C-45.39282668 50.15662535 -45.4921416 44.93104147 -45.55200195 39.70068359 C-45.57698002 37.92579066 -45.61097501 36.15099882 -45.65454102 34.37646484 C-45.9393991 22.46604546 -45.554033 14.24827933 -38.06640625 4.51171875 C-37.35226563 3.81046875 -36.638125 3.10921875 -35.90234375 2.38671875 C-34.83886719 1.30390625 -34.83886719 1.30390625 -33.75390625 0.19921875 C-24.54082514 -6.54347784 -9.53655942 -5.30162652 0 0 Z " fill="#F70C0D" transform="translate(194.27734375,93.61328125)"/>
<path d="M0 0 C1.08847988 3.27566011 0.90589642 5.19415276 -0.15234375 8.45703125 C-0.43037842 9.31538574 -0.70841309 10.17374023 -0.99487305 11.05810547 C-1.30593994 11.96705566 -1.61700684 12.87600586 -1.9375 13.8125 C-2.25307861 14.74723145 -2.56865723 15.68196289 -2.89379883 16.64501953 C-5.79885485 24.95392089 -9.5477596 32.4174215 -14 40 C-14.67986964 41.21474183 -15.35955558 42.42958649 -16.0390625 43.64453125 C-24.57411756 58.24933662 -37.92648373 72.03329253 -52.3203125 80.84375 C-54.15498559 81.90733124 -54.15498559 81.90733124 -55 84 C-54.34 84.66 -53.68 85.32 -53 86 C-56.06032459 87.62912132 -59.12363037 89.252557 -62.1875 90.875 C-63.05181641 91.33519531 -63.91613281 91.79539062 -64.80664062 92.26953125 C-65.64775391 92.71425781 -66.48886719 93.15898437 -67.35546875 93.6171875 C-68.12528076 94.02565918 -68.89509277 94.43413086 -69.68823242 94.85498047 C-76.42495433 98.19168189 -76.42495433 98.19168189 -80 97 C-79.34 97 -78.68 97 -78 97 C-78 96.34 -78 95.68 -78 95 C-78.66531738 95.176521 -79.33063477 95.35304199 -80.01611328 95.53491211 C-83.05166965 96.3385972 -86.08831671 97.13808398 -89.125 97.9375 C-90.17171875 98.21529297 -91.2184375 98.49308594 -92.296875 98.77929688 C-93.31523437 99.04677734 -94.33359375 99.31425781 -95.3828125 99.58984375 C-96.31496582 99.83597412 -97.24711914 100.08210449 -98.20751953 100.33569336 C-106.24380615 102.24745555 -114.16719045 102.2400113 -122.375 102.25 C-123.45181534 102.25250763 -123.45181534 102.25250763 -124.55038452 102.25506592 C-150.1120308 102.25864613 -150.1120308 102.25864613 -158 97 C-153.95200568 97.41875803 -149.93360413 97.84499095 -145.91796875 98.51171875 C-136.19441284 100.10778555 -126.8157113 100.3679539 -117 100 C-115.72253906 99.96648437 -114.44507813 99.93296875 -113.12890625 99.8984375 C-87.12616622 98.06541454 -61.30480127 86.13949181 -42 69 C-41.17371094 68.31679687 -40.34742188 67.63359375 -39.49609375 66.9296875 C-29.06766756 58.08429314 -20.81737095 46.80062688 -14 35 C-13.51273438 34.16210938 -13.02546875 33.32421875 -12.5234375 32.4609375 C-7.00428009 22.21950637 -3.661364 11.0036715 0 0 Z " fill="#A90A1E" transform="translate(265,160)"/>
<path d="M0 0 C0.33 0 0.66 0 1 0 C0.49143722 6.55263581 -0.76932273 12.06680389 -3.125 18.1875 C-3.43993408 19.01483643 -3.75486816 19.84217285 -4.0793457 20.69458008 C-15.68867792 50.61950797 -36.38015504 73.03949757 -64 89 C-65.051875 89.65871094 -66.10375 90.31742187 -67.1875 90.99609375 C-71.86100139 93.65775917 -76.93788587 95.07561834 -82.0625 96.625 C-83.9909525 97.22113721 -85.91933977 97.81748546 -87.84765625 98.4140625 C-89.20286377 98.82664307 -89.20286377 98.82664307 -90.58544922 99.24755859 C-92.47081287 99.83509052 -94.33911818 100.47743896 -96.19921875 101.140625 C-113.65003814 106.49513025 -133.47153873 104.72757151 -151 101 C-151 100.01 -151 99.02 -151 98 C-149.85144531 98.144375 -148.70289063 98.28875 -147.51953125 98.4375 C-111.82224668 102.77660975 -76.29132003 96.37321367 -47.25 74.0625 C-45.14440993 72.39976103 -43.07203269 70.70527755 -41 69 C-40.12601562 68.29230469 -39.25203125 67.58460938 -38.3515625 66.85546875 C-18.67554688 50.127752 -5.50510494 25.0023516 0 0 Z " fill="#D8424D" transform="translate(264,157)"/>
<path d="M0 0 C3.5417612 1.1613279 7.06318298 2.37059772 10.57421875 3.62109375 C27.46232157 9.63094257 42.09829902 13.25787714 60.125 13.375 C60.82954315 13.38022675 61.5340863 13.38545349 62.25997925 13.39083862 C74.302741 13.43196116 85.26248818 11.86025522 96.87548828 8.55126953 C99.90027629 7.76639579 102.89837006 7.36220377 106 7 C106 7.66 106 8.32 106 9 C105.34 9 104.68 9 104 9 C104 9.66 104 10.32 104 11 C101.8338326 11.62672821 99.66703932 12.25129331 97.5 12.875 C96.2934375 13.22304688 95.086875 13.57109375 93.84375 13.9296875 C92.5753125 14.28289062 91.306875 14.63609375 90 15 C88.86433594 15.34933594 87.72867188 15.69867188 86.55859375 16.05859375 C80.43719131 17.56334577 74.0641054 17.70688178 67.79174805 18.06030273 C65.57059916 18.18703788 63.35090873 18.33001034 61.13085938 18.47460938 C43.20017898 19.57923122 43.20017898 19.57923122 35 16 C32.54463035 15.39031453 30.09115457 14.81096692 27.625 14.25 C19.37317926 12.28979737 11.79476019 9.32297937 4 6 C2.33517917 5.32873713 0.66925558 4.66015757 -1 4 C-0.67 2.68 -0.34 1.36 0 0 Z " fill="#E34A6A" transform="translate(81,248)"/>
<path d="M0 0 C0.59167969 0.35707031 1.18335937 0.71414063 1.79296875 1.08203125 C1.29071777 1.33782959 0.7884668 1.59362793 0.27099609 1.85717773 C-13.77416765 9.04303824 -27.50350786 16.07815891 -39.0234375 27.0390625 C-41.20703125 29.08203125 -41.20703125 29.08203125 -43.7265625 31.05078125 C-64.12484202 47.75488417 -75.57185725 76.84708271 -78.87597656 102.22607422 C-79.69372913 111.75084126 -79.38858408 121.36678868 -79.1472168 130.91503906 C-79.13199982 131.70478622 -79.11678284 132.49453339 -79.10110474 133.30821228 C-79.07078145 134.80640415 -79.02738161 136.30440399 -78.96920776 137.80177307 C-78.92993164 139.82348633 -78.92993164 139.82348633 -79.20703125 143.08203125 C-80.69203125 144.07203125 -80.69203125 144.07203125 -82.20703125 145.08203125 C-83.70166855 138.69348178 -83.40159051 132.23135965 -83.39453125 125.70703125 C-83.39525635 125.03140137 -83.39598145 124.35577148 -83.39672852 123.65966797 C-83.39569211 114.9559065 -83.16067845 106.48603204 -81.64453125 97.89453125 C-81.18120784 94.91602359 -81.13537735 92.09149497 -81.20703125 89.08203125 C-82.19703125 89.57703125 -82.19703125 89.57703125 -83.20703125 90.08203125 C-83.20703125 88.76203125 -83.20703125 87.44203125 -83.20703125 86.08203125 C-81.55703125 86.41203125 -79.90703125 86.74203125 -78.20703125 87.08203125 C-78.14515625 86.17453125 -78.08328125 85.26703125 -78.01953125 84.33203125 C-77.18160588 78.54801862 -74.60617644 73.36145102 -72.20703125 68.08203125 C-71.76230469 67.0971875 -71.31757812 66.11234375 -70.859375 65.09765625 C-57.91398078 37.83660324 -36.0360886 17.833097 -10.20703125 3.08203125 C-8.92505859 2.32792969 -8.92505859 2.32792969 -7.6171875 1.55859375 C-2.74852994 -1.14319387 -2.74852994 -1.14319387 0 0 Z " fill="#9A8E90" transform="translate(87.20703125,14.91796875)"/>
<path d="M0 0 C2.67998716 2.67998716 2.82975809 4.93787415 3.6875 8.625 C8.32986339 27.11812845 17.88329901 45.44749129 31.76171875 58.6796875 C33 60 33 60 33 62 C33.87398437 62.38671875 33.87398437 62.38671875 34.765625 62.78125 C37.18474537 64.1007702 38.78057303 65.57783928 40.75 67.5 C53.32819505 78.87830144 69.20914424 86.77129496 85.515625 91.04296875 C86.33546875 91.35878906 87.1553125 91.67460937 88 92 C88.33 92.99 88.66 93.98 89 95 C62.83782417 92.48440617 41.51374624 76.61147269 24.66796875 57.109375 C22.86931406 54.83472973 21.3801274 52.477396 20.04296875 49.90234375 C18.75696653 47.55671423 17.25015051 45.40232896 15.75 43.1875 C10.87635869 35.60394606 7.4174207 27.31796225 4 19 C3.71084717 18.30052246 3.42169434 17.60104492 3.1237793 16.88037109 C1.53792384 12.88034872 0.58348939 9.33583025 0.3125 5 C0.24675781 4.05125 0.18101563 3.1025 0.11328125 2.125 C0.07589844 1.42375 0.03851562 0.7225 0 0 Z " fill="#CF3B4C" transform="translate(20,161)"/>
<path d="M0 0 C0.33 0 0.66 0 1 0 C1 10.89 1 21.78 1 33 C7.6 33 14.2 33 21 33 C21.33 31.35 21.66 29.7 22 28 C22.68964844 27.99742187 23.37929687 27.99484375 24.08984375 27.9921875 C32.47200377 27.64724264 38.06731027 25.14705018 43.86328125 19.03515625 C46.43976099 16.58114172 49.15568974 14.99895797 52.25 13.25 C53.32765625 12.63640625 54.4053125 12.0228125 55.515625 11.390625 C56.33546875 10.93171875 57.1553125 10.4728125 58 10 C59 12 59 12 58 15.125 C54.55146755 22.61502524 48.47240567 28.55735596 41 32 C35.87464623 33.72111435 31.24494708 34.27393808 25.87890625 34.1953125 C25.2175769 34.19329834 24.55624756 34.19128418 23.87487793 34.18920898 C21.43734664 34.17885497 18.99991532 34.15093361 16.5625 34.125 C11.096875 34.08375 5.63125 34.0425 0 34 C0 22.78 0 11.56 0 0 Z " fill="#DF1D20" transform="translate(148,116)"/>
<path d="M0 0 C0.33 0 0.66 0 1 0 C0.94199219 1.02480469 0.88398438 2.04960938 0.82421875 3.10546875 C0.77730043 4.46610011 0.73180248 5.82678096 0.6875 7.1875 C0.6246582 8.19780273 0.6246582 8.19780273 0.56054688 9.22851562 C0.4647054 13.15801626 0.78881361 14.7499385 3.35546875 17.7890625 C4.22816406 18.51867187 5.10085937 19.24828125 6 20 C6.89342409 21.04705522 7.77295534 22.10650456 8.625 23.1875 C13.84756219 29.37211312 20.35863125 30.20951358 28 31 C28 31.33 28 31.66 28 32 C24.92382812 32.29296875 24.92382812 32.29296875 21.84765625 32.5859375 C20.93306641 32.79089844 20.93306641 32.79089844 20 33 C19.67 33.66 19.34 34.32 19 35 C12.4 35 5.8 35 -1 35 C-1.02293351 30.33685286 -1.04285342 25.67390075 -1.05493164 21.01074219 C-1.05996588 19.42382139 -1.06679369 17.83690523 -1.07543945 16.25 C-1.08754482 13.97134251 -1.09323733 11.69274624 -1.09765625 9.4140625 C-1.10281754 8.70255035 -1.10797882 7.99103821 -1.11329651 7.25796509 C-1.11387171 2.22774341 -1.11387171 2.22774341 0 0 Z " fill="#FA0506" transform="translate(150,114)"/>
<path d="M0 0 C1.08847988 3.27566011 0.90589642 5.19415276 -0.15234375 8.45703125 C-0.43037842 9.31538574 -0.70841309 10.17374023 -0.99487305 11.05810547 C-1.30593994 11.96705566 -1.61700684 12.87600586 -1.9375 13.8125 C-2.25307861 14.74723145 -2.56865723 15.68196289 -2.89379883 16.64501953 C-5.79885485 24.95392089 -9.5477596 32.4174215 -14 40 C-14.67986964 41.21474183 -15.35955558 42.42958649 -16.0390625 43.64453125 C-26.51819157 61.57594931 -42.66495428 75.09053127 -60 86 C-60.86238281 86.55429688 -61.72476563 87.10859375 -62.61328125 87.6796875 C-65.14719177 89.08142524 -67.52793823 89.9078227 -70.3125 90.6875 C-71.19550781 90.93886719 -72.07851562 91.19023437 -72.98828125 91.44921875 C-73.65214844 91.63097656 -74.31601563 91.81273437 -75 92 C-72.84076644 89.65885609 -70.72745791 88.14065136 -67.9375 86.6171875 C-67.14593506 86.17681152 -66.35437012 85.73643555 -65.53881836 85.28271484 C-64.7010083 84.81816895 -63.86319824 84.35362305 -63 83.875 C-55.29480459 79.50532123 -48.5995579 74.93423661 -42 69 C-41.17628906 68.31808594 -40.35257813 67.63617188 -39.50390625 66.93359375 C-29.06905115 58.09408311 -20.81753083 46.80090362 -14 35 C-13.51273438 34.16210938 -13.02546875 33.32421875 -12.5234375 32.4609375 C-7.00428009 22.21950637 -3.661364 11.0036715 0 0 Z " fill="#9F071A" transform="translate(265,160)"/>
<path d="M0 0 C-0.33 0.99 -0.66 1.98 -1 3 C-3.33261023 3.48292321 -5.66599588 3.96139859 -8 4.4375 C-8.64839844 4.57220703 -9.29679687 4.70691406 -9.96484375 4.84570312 C-29.10372556 8.73032765 -48.96042706 8.08747228 -68 4 C-69.66649844 3.66582666 -71.33308578 3.33209316 -73 3 C-72.67 2.01 -72.34 1.02 -72 0 C-69.77058595 0.31073024 -67.54147788 0.62365625 -65.3125 0.9375 C-64.07113281 1.11152344 -62.82976562 1.28554688 -61.55078125 1.46484375 C-59.56996525 1.76338258 -57.59103535 2.09082942 -55.63549805 2.52514648 C-52.79749137 3.0364872 -50.16415116 3.12949555 -47.28125 3.1328125 C-46.19021973 3.13498779 -45.09918945 3.13716309 -43.97509766 3.1394043 C-42.25492432 3.13227417 -42.25492432 3.13227417 -40.5 3.125 C-38.73922119 3.11883667 -38.73922119 3.11883667 -36.94287109 3.11254883 C-25.67174504 3.03970555 -15.26970252 2.67257636 -4.36328125 -0.4765625 C-2 -1 -2 -1 0 0 Z " fill="#BBBBBB" transform="translate(177,270)"/>
<path d="M0 0 C0.33 0 0.66 0 1 0 C1 25.08 1 50.16 1 76 C0.01 76 -0.98 76 -2 76 C-2.33 54.22 -2.66 32.44 -3 10 C-2.34 9.67 -1.68 9.34 -1 9 C-0.53348793 6.87423218 -0.53348793 6.87423218 -0.375 4.4375 C-0.30023438 3.61121094 -0.22546875 2.78492187 -0.1484375 1.93359375 C-0.09945312 1.29550781 -0.05046875 0.65742187 0 0 Z " fill="#F21010" transform="translate(125,110)"/>
<path d="M0 0 C3.5417612 1.1613279 7.06318298 2.37059772 10.57421875 3.62109375 C23.13152317 8.09246845 34.92275959 12.05766092 48.25268555 13.2668457 C51.90351351 13.6208832 53.88813803 13.92542536 57 16 C56 17 56 17 54.21264648 17.08520508 C35.94122977 16.57274432 20.8215629 13.17119003 4 6 C2.33517917 5.32873713 0.66925558 4.66015757 -1 4 C-0.67 2.68 -0.34 1.36 0 0 Z " fill="#F7406C" transform="translate(81,248)"/>
<path d="M0 0 C1.70884005 1.62339805 3.37446717 3.29319053 5 5 C5 5.66 5 6.32 5 7 C5.66 7 6.32 7 7 7 C9.4627201 9.67686967 10.68736495 12.59123379 12.08325195 15.91040039 C13.09359687 18.21334105 14.18862692 20.46126422 15.3046875 22.71484375 C23.20812978 38.70826728 29.78101223 53.81643312 29 72 C28.00390625 74.484375 28.00390625 74.484375 27 76 C26.89042969 75.3915625 26.78085937 74.783125 26.66796875 74.15625 C26.32352713 72.25201989 25.97544916 70.34844616 25.625 68.4453125 C25.19368963 66.06771409 24.77797087 63.68725278 24.375 61.3046875 C20.73826457 40.51743837 14.28217958 21.71894139 1.1796875 4.8125 C0 3 0 3 0 0 Z " fill="#8B0824" transform="translate(242,57)"/>
<path d="M0 0 C6.07229585 6.07229585 7.14587611 11.28555537 7.29296875 19.78515625 C7.27324553 22.21111207 7.23778978 24.6369853 7.1875 27.0625 C7.17396484 28.30966797 7.16042969 29.55683594 7.14648438 30.84179688 C7.1113902 33.89498967 7.06222267 36.9472599 7 40 C4.27345408 36.3733972 1.63045563 32.69685656 -1 29 C-0.34 29 0.32 29 1 29 C0.67 19.43 0.34 9.86 0 0 Z " fill="#0C509C" transform="translate(113,66)"/>
<path d="M0 0 C0 0.33 0 0.66 0 1 C-0.86463867 1.0093457 -1.72927734 1.01869141 -2.62011719 1.02832031 C-24.78247094 1.32852749 -45.20399911 2.59896653 -66 11 C-66 10.34 -66 9.68 -66 9 C-66.66 8.34 -67.32 7.68 -68 7 C-47.07176408 -1.63759166 -22.28492302 -4.16291122 0 0 Z " fill="#F1335D" transform="translate(156,9)"/>
<path d="M0 0 C1.20378296 0.00616333 1.20378296 0.00616333 2.43188477 0.01245117 C22.52122471 0.19767062 22.52122471 0.19767062 25.62890625 2.54296875 C26.75 4.125 26.75 4.125 26.75 6.125 C25.77099731 6.02650757 25.77099731 6.02650757 24.7722168 5.92602539 C17.70568041 5.245433 10.65531613 4.8400252 3.5625 4.5625 C2.51513672 4.51931641 1.46777344 4.47613281 0.38867188 4.43164062 C-2.15746397 4.32700491 -4.70367178 4.22482454 -7.25 4.125 C-7.25 3.465 -7.25 2.805 -7.25 2.125 C-8.24 1.795 -9.23 1.465 -10.25 1.125 C-7.03175969 -0.48412015 -3.53255649 -0.02135241 0 0 Z " fill="#BEBEBE" transform="translate(139.25,-0.125)"/>
<path d="M0 0 C0.99 0.33 1.98 0.66 3 1 C4.09911549 4.29734646 4.1139456 6.72958745 4.09765625 10.19921875 C4.09443359 11.40771484 4.09121094 12.61621094 4.08789062 13.86132812 C4.07951172 15.12396484 4.07113281 16.38660156 4.0625 17.6875 C4.05798828 18.96173828 4.05347656 20.23597656 4.04882812 21.54882812 C4.03702873 24.69926564 4.02056597 27.84960949 4 31 C0.05534182 30.39354978 -3.33992527 29.61473885 -7 28 C-4.92446352 27.4465236 -3.15634036 27 -1 27 C-0.67 18.09 -0.34 9.18 0 0 Z " fill="#0494CC" transform="translate(110,64)"/>
<path d="M0 0 C0.99 0.33 1.98 0.66 3 1 C3.22072115 2.82791402 3.44095671 4.65588779 3.65893555 6.48413086 C3.84647597 8.05167951 4.03679618 9.61889782 4.22973633 11.18579102 C4.72435071 15.28420551 5.05809321 19.30942349 5.1875 23.4375 C6.10691849 34.37022168 11.99379332 45.78882798 17.25 55.25 C17.4975 55.8275 17.745 56.405 18 57 C17.67 57.66 17.34 58.32 17 59 C11.15689771 51.98827725 8.57933443 43.28410095 5.8125 34.75 C5.45736328 33.67492187 5.10222656 32.59984375 4.73632812 31.4921875 C0.9434937 19.94815256 0.9434937 19.94815256 0.68359375 14.453125 C0.64169922 13.60878906 0.59980469 12.76445312 0.55664062 11.89453125 C0.51732422 11.02183594 0.47800781 10.14914063 0.4375 9.25 C0.39431641 8.36183594 0.35113281 7.47367188 0.30664062 6.55859375 C0.20086385 4.37254037 0.09877454 2.18637911 0 0 Z " fill="#BC223A" transform="translate(16,143)"/>
<path d="M0 0 C0.33 0 0.66 0 1 0 C1 26.07 1 52.14 1 79 C0.67 79 0.34 79 0 79 C-0.01030746 78.24990662 -0.02061493 77.49981323 -0.03123474 76.72698975 C-0.12980046 69.60804791 -0.23239058 62.48917756 -0.33933926 55.37035751 C-0.39416588 51.71177558 -0.44751445 48.05318533 -0.49731445 44.39453125 C-0.54556071 40.85423123 -0.59791231 37.31401221 -0.65294075 33.77381134 C-0.68280689 31.78672688 -0.70857771 29.79958219 -0.73423767 27.81243896 C-0.85714121 20.1691483 -1.25029937 12.60797101 -2 5 C-3.18078125 5.22816406 -4.3615625 5.45632812 -5.578125 5.69140625 C-7.13533463 5.98221046 -8.69263094 6.2725508 -10.25 6.5625 C-11.02730469 6.71396484 -11.80460937 6.86542969 -12.60546875 7.02148438 C-13.35957031 7.16005859 -14.11367187 7.29863281 -14.890625 7.44140625 C-15.58188477 7.57232666 -16.27314453 7.70324707 -16.98535156 7.83813477 C-19.21287942 8.01710362 -20.87506962 7.65206197 -23 7 C-22.00818726 6.78851318 -22.00818726 6.78851318 -20.99633789 6.57275391 C-18.01643571 5.93223625 -15.03951388 5.27880441 -12.0625 4.625 C-11.02158203 4.40328125 -9.98066406 4.1815625 -8.90820312 3.953125 C-7.42416992 3.62441406 -7.42416992 3.62441406 -5.91015625 3.2890625 C-4.99371338 3.09006348 -4.07727051 2.89106445 -3.13305664 2.68603516 C-2.42914795 2.45964355 -1.72523926 2.23325195 -1 2 C-0.67 1.34 -0.34 0.68 0 0 Z " fill="#EF3637" transform="translate(125,21)"/>
<path d="M0 0 C0.66 0 1.32 0 2 0 C3 4 4 8 5 12 C5.19207031 12.67546875 5.38414062 13.3509375 5.58203125 14.046875 C8.08640096 25.74953719 4.65743342 38.69463801 -1 49 C-3.25 52.0625 -3.25 52.0625 -5 54 C-5.99 53.67 -6.98 53.34 -8 53 C-7.54109375 52.35675781 -7.0821875 51.71351563 -6.609375 51.05078125 C1.33376017 39.35301285 4.33485079 28.1463497 3 14 C2.37221405 10.97945274 1.61530687 8.10232655 0.65625 5.171875 C0 3 0 3 0 0 Z " fill="#BA050B" transform="translate(227,98)"/>
<path d="M0 0 C0.58370361 0.36198486 1.16740723 0.72396973 1.76879883 1.09692383 C1.26654785 1.35272217 0.76429687 1.60852051 0.24682617 1.87207031 C-17.67929692 10.81900745 -17.67929692 10.81900745 -33.92651367 22.41723633 C-34.68706055 22.9715332 -35.44760742 23.52583008 -36.23120117 24.09692383 C-37.22120117 23.76692383 -38.21120117 23.43692383 -39.23120117 23.09692383 C-32.88599504 17.43655272 -26.29339216 12.69750682 -19.04370117 8.28442383 C-18.29620605 7.82898193 -17.54871094 7.37354004 -16.77856445 6.90429688 C-14.61140844 5.60624828 -12.42763062 4.34470281 -10.23120117 3.09692383 C-9.50852051 2.67362793 -8.78583984 2.25033203 -8.04125977 1.81420898 C-7.34468262 1.4292627 -6.64810547 1.04431641 -5.93041992 0.64770508 C-5.31384521 0.30006104 -4.69727051 -0.04758301 -4.06201172 -0.40576172 C-2.23120117 -0.90307617 -2.23120117 -0.90307617 0 0 Z " fill="#A49497" transform="translate(87.231201171875,14.903076171875)"/>
<path d="M0 0 C2.3125 0.8125 2.3125 0.8125 4 2 C-0.42281405 5.95869159 -5.30517998 8.30976649 -10.625 10.8125 C-11.48351562 11.23208984 -12.34203125 11.65167969 -13.2265625 12.08398438 C-14.0515625 12.47521484 -14.8765625 12.86644531 -15.7265625 13.26953125 C-16.47502441 13.62635986 -17.22348633 13.98318848 -17.99462891 14.35083008 C-20 15 -20 15 -23 14 C-22.34 14 -21.68 14 -21 14 C-21 13.34 -21 12.68 -21 12 C-21.66 11.67 -22.32 11.34 -23 11 C-22.01 10.67 -21.02 10.34 -20 10 C-20.66 9.34 -21.32 8.68 -22 8 C-19.23735711 7.40267181 -16.83967231 7 -14 7 C-11.85793647 6.23900482 -11.85793647 6.23900482 -9.625 5.1875 C-8.82964844 4.82785156 -8.03429687 4.46820313 -7.21484375 4.09765625 C-4.83801522 2.97836551 -4.83801522 2.97836551 -2.1875 1.125 C-1.1046875 0.568125 -1.1046875 0.568125 0 0 Z " fill="#A10E33" transform="translate(208,243)"/>
<path d="M0 0 C2.64 0 5.28 0 8 0 C8 0.33 8 0.66 8 1 C5.69 1 3.38 1 1 1 C1.33 23.77 1.66 46.54 2 70 C3.98 69.505 3.98 69.505 6 69 C3.525 73.95 3.525 73.95 1 79 C0.67 79 0.34 79 0 79 C0 52.93 0 26.86 0 0 Z " fill="#E7C6C7" transform="translate(126,21)"/>
<path d="M0 0 C6.75 -0.125 6.75 -0.125 9 1 C9 10.24 9 19.48 9 29 C8.01 29.33 7.02 29.66 6 30 C6 21.09 6 12.18 6 3 C4.68 2.67 3.36 2.34 2 2 C1.34 1.34 0.68 0.68 0 0 Z " fill="#07B7E3" transform="translate(101,62)"/>
<path d="M0 0 C0.0890755 4.68537104 -0.21481356 9.06125174 -0.9375 13.6875 C-2.26899779 23.09297378 -2.63408747 32.51516215 -3 42 C-3.33 42 -3.66 42 -4 42 C-4.03758423 40.98631348 -4.03758423 40.98631348 -4.07592773 39.95214844 C-4.19210742 36.8845832 -4.31473437 33.81730842 -4.4375 30.75 C-4.47681641 29.68652344 -4.51613281 28.62304688 -4.55664062 27.52734375 C-4.59853516 26.50253906 -4.64042969 25.47773438 -4.68359375 24.421875 C-4.72025146 23.47924805 -4.75690918 22.53662109 -4.79467773 21.56542969 C-4.9799265 19.25081129 -5.43859123 17.24151357 -6 15 C-5.765625 11.8359375 -5.765625 11.8359375 -5.25 8.375 C-5.09015625 7.22773437 -4.9303125 6.08046875 -4.765625 4.8984375 C-4.05126916 2.19409041 -3.41009533 0 0 0 Z " fill="#B3B3B3" transform="translate(7,103)"/>
<path d="M0 0 C0.33 0 0.66 0 1 0 C1.07589768 6.2295758 1.12853504 12.45903295 1.16479492 18.68896484 C1.17990645 20.80945288 1.2003964 22.92990954 1.22631836 25.05029297 C1.26259786 28.09350311 1.27970242 31.13630103 1.29296875 34.1796875 C1.30845261 35.13181122 1.32393646 36.08393494 1.33988953 37.06491089 C1.34011612 37.94567291 1.34034271 38.82643494 1.34057617 39.73388672 C1.34723801 40.51110077 1.35389984 41.28831482 1.36076355 42.08908081 C1.24171158 42.71968414 1.12265961 43.35028748 1 44 C0.01 44.66 -0.98 45.32 -2 46 C-3.00926479 41.84373632 -3.10239579 37.95634906 -3.0625 33.6875 C-3.05347656 32.43324219 -3.04445312 31.17898437 -3.03515625 29.88671875 C-3.02355469 28.93410156 -3.01195312 27.98148438 -3 27 C-2.67 27 -2.34 27 -2 27 C-1.97494385 26.32420898 -1.9498877 25.64841797 -1.92407227 24.95214844 C-1.80789258 21.8845832 -1.68526563 18.81730842 -1.5625 15.75 C-1.50352539 14.15478516 -1.50352539 14.15478516 -1.44335938 12.52734375 C-1.38051758 10.99013672 -1.38051758 10.99013672 -1.31640625 9.421875 C-1.27974854 8.47924805 -1.24309082 7.53662109 -1.20532227 6.56542969 C-1.02060772 4.25748623 -0.64138388 2.21859476 0 0 Z " fill="#B67D85" transform="translate(7,114)"/>
<path d="M0 0 C3.93440741 5.90161112 4.36886793 12.82814979 4.75 19.75 C4.80542969 20.49121094 4.86085938 21.23242188 4.91796875 21.99609375 C5.14722521 25.86566493 5.23655572 28.73118779 3 32 C1.71980471 25.57178533 0.67751022 19.12079352 -0.1875 12.625 C-0.28337402 11.94759766 -0.37924805 11.27019531 -0.47802734 10.57226562 C-0.96078102 6.80361217 -1.00046375 3.67546257 0 0 Z " fill="#8F0B2C" transform="translate(266,101)"/>
<path d="M0 0 C0.7321875 0.22945312 1.464375 0.45890625 2.21875 0.6953125 C-1.70487733 6.18839076 -6.5031664 10.07178813 -12.78125 12.6953125 C-15.08984375 12.35546875 -15.08984375 12.35546875 -16.78125 11.6953125 C-13.79283362 8.51409507 -10.6359042 5.61492427 -7.28125 2.8203125 C-6.5490625 2.20414063 -5.816875 1.58796875 -5.0625 0.953125 C-2.78125 -0.3046875 -2.78125 -0.3046875 0 0 Z " fill="#830725" transform="translate(225.78125,232.3046875)"/>
<path d="M0 0 C0 0.66 0 1.32 0 2 C-7.59 4.64 -15.18 7.28 -23 10 C-23 9.34 -23 8.68 -23 8 C-23.66 7.34 -24.32 6.68 -25 6 C-16.61154419 2.80720291 -9.07797863 0 0 0 Z " fill="#FB3666" transform="translate(113,10)"/>
<path d="M0 0 C0.33 0 0.66 0 1 0 C1 6.93 1 13.86 1 21 C1.66 21.33 2.32 21.66 3 22 C2.67 27.94 2.34 33.88 2 40 C2.66 40 3.32 40 4 40 C3 43 3 43 0.9375 44.1875 C0.298125 44.455625 -0.34125 44.72375 -1 45 C-1 42.59795244 -0.96588395 40.20491957 -0.90820312 37.80395508 C-0.878172 36.54298759 -0.878172 36.54298759 -0.84753418 35.25654602 C-0.8256604 34.35333115 -0.80378662 33.45011627 -0.78125 32.51953125 C-0.75905396 31.59154221 -0.73685791 30.66355316 -0.71398926 29.70744324 C-0.64299434 26.74245402 -0.57150305 23.777477 -0.5 20.8125 C-0.45179023 18.80273516 -0.40361275 16.79296954 -0.35546875 14.78320312 C-0.23735382 9.85545968 -0.1187937 4.92772713 0 0 Z " fill="#F20000" transform="translate(149,32)"/>
<path d="M0 0 C3.30798787 0.42683714 6.01037808 1.40853391 9 2.8125 C13.96671747 5.12806423 19.09309267 6.548253 24.375 7.97265625 C25.24125 8.31167969 26.1075 8.65070313 27 9 C27.33 9.99 27.66 10.98 28 12 C21.93335112 11.50351416 17.24502755 10.12719442 11.75 7.5625 C10.70972656 7.09360352 10.70972656 7.09360352 9.6484375 6.61523438 C6.39887943 5.14297291 3.17449026 3.62815351 0 2 C0 1.34 0 0.68 0 0 Z " fill="#D64350" transform="translate(81,244)"/>
<path d="M0 0 C4.62 0 9.24 0 14 0 C14 0.33 14 0.66 14 1 C13.21753906 1.06058594 12.43507812 1.12117187 11.62890625 1.18359375 C10.61699219 1.26738281 9.60507813 1.35117188 8.5625 1.4375 C7.55316406 1.51871094 6.54382813 1.59992188 5.50390625 1.68359375 C3.06359221 1.73211468 3.06359221 1.73211468 2 3 C1.9781826 4.58332008 2.0110867 6.16736449 2.0625 7.75 C2.16584982 17.21225021 0.99321472 26.6014416 0 36 C-0.33 36 -0.66 36 -1 36 C-1.02468447 31.19450253 -1.04285255 26.38904182 -1.05493164 21.58349609 C-1.05996621 19.94807289 -1.06679427 18.3126542 -1.07543945 16.67724609 C-1.08754335 14.32909025 -1.093237 11.98099381 -1.09765625 9.6328125 C-1.10281754 8.89942657 -1.10797882 8.16604065 -1.11329651 7.41043091 C-1.11387171 2.22774341 -1.11387171 2.22774341 0 0 Z " fill="#D23244" transform="translate(150,185)"/>
<path d="M0 0 C1.32 1.32 2.64 2.64 4 4 C3.34 4.66 2.68 5.32 2 6 C0.02588338 10.65228881 -0.25051057 14.89319573 -0.125 19.875 C-0.11597656 20.56335938 -0.10695312 21.25171875 -0.09765625 21.9609375 C-0.07432513 23.64077838 -0.03846326 25.32043746 0 27 C-0.99 27.33 -1.98 27.66 -3 28 C-3 23.05 -3 18.1 -3 13 C-3.33 13 -3.66 13 -4 13 C-3.55966813 7.80408388 -3.11696661 4.33664919 0 0 Z " fill="#F82F30" transform="translate(153,103)"/>
<path d="M0 0 C0 0.66 0 1.32 0 2 C-0.66 2 -1.32 2 -2 2 C-2 2.66 -2 3.32 -2 4 C-7.89738492 6.29342747 -12.66606918 7.34548714 -19 7 C-19 6.01 -19 5.02 -19 4 C-16.58490559 3.32713788 -14.16819644 2.66153988 -11.75 2 C-11.06808594 1.80921875 -10.38617188 1.6184375 -9.68359375 1.421875 C-6.29399088 0.50042956 -3.54221024 0 0 0 Z " fill="#C8224A" transform="translate(187,255)"/>
<path d="M0 0 C3.01891805 4.52837707 3.12311367 7.89990259 3.09765625 13.296875 C3.09282227 15.10478516 3.09282227 15.10478516 3.08789062 16.94921875 C3.07951172 18.20347656 3.07113281 19.45773438 3.0625 20.75 C3.05798828 22.01972656 3.05347656 23.28945312 3.04882812 24.59765625 C3.03704556 27.73181836 3.02059416 30.86588541 3 34 C-0.33691565 30.47449281 -0.35340073 27.8008574 -0.29296875 23.046875 C-0.28872391 22.38665344 -0.28447906 21.72643188 -0.28010559 21.04620361 C-0.26337435 18.94704609 -0.22573551 16.84886504 -0.1875 14.75 C-0.17244584 13.32293058 -0.15875871 11.89584604 -0.14648438 10.46875 C-0.11349001 6.97885183 -0.06174743 3.4895213 0 0 Z " fill="#222275" transform="translate(117,72)"/>
<path d="M0 0 C0.66 0.33 1.32 0.66 2 1 C3.03514808 4.66324 3.11708651 8.16813059 3.09765625 11.95703125 C3.09282227 13.62475586 3.09282227 13.62475586 3.08789062 15.32617188 C3.07951172 16.47666016 3.07113281 17.62714844 3.0625 18.8125 C3.05798828 19.98232422 3.05347656 21.15214844 3.04882812 22.35742188 C3.0370693 25.23833358 3.02063426 28.11914044 3 31 C1.68 30.67 0.36 30.34 -1 30 C-0.34 29.67 0.32 29.34 1 29 C0.67 19.43 0.34 9.86 0 0 Z " fill="#0872B5" transform="translate(113,66)"/>
<path d="M0 0 C-0.33 0.99 -0.66 1.98 -1 3 C-8.0157365 5.1852294 -14.69845409 5.22238211 -22 5 C-19.79385831 2.79385831 -18.89832759 2.55673575 -15.9375 1.89453125 C-14.74253906 1.62672852 -14.74253906 1.62672852 -13.5234375 1.35351562 C-12.27433594 1.08571289 -12.27433594 1.08571289 -11 0.8125 C-10.16726562 0.62236328 -9.33453125 0.43222656 -8.4765625 0.23632812 C-2.25539581 -1.1276979 -2.25539581 -1.1276979 0 0 Z " fill="#BDBDBD" transform="translate(177,270)"/>
<path d="M0 0 C0.33 0 0.66 0 1 0 C1 6.27 1 12.54 1 19 C0.34 19 -0.32 19 -1 19 C-1 23.29 -1 27.58 -1 32 C-2.99390001 28.01219998 -3.22686963 26.52852428 -3.125 22.25 C-3.09792969 20.77273437 -3.09792969 20.77273437 -3.0703125 19.265625 C-3.03550781 18.14414063 -3.03550781 18.14414063 -3 17 C-2.34 17 -1.68 17 -1 17 C-0.67 11.39 -0.34 5.78 0 0 Z " fill="#C4162C" transform="translate(18,125)"/>
<path d="M0 0 C0.66 0 1.32 0 2 0 C7.74031891 12.48519362 7.74031891 12.48519362 7 19 C6.34 19 5.68 19 5 19 C4.16338138 16.2092793 3.33057263 13.41751988 2.5 10.625 C2.26152344 9.8309375 2.02304687 9.036875 1.77734375 8.21875 C1.55175781 7.45820312 1.32617188 6.69765625 1.09375 5.9140625 C0.88427734 5.2123291 0.67480469 4.5105957 0.45898438 3.78759766 C0 2 0 2 0 0 Z " fill="#8D0928" transform="translate(259,87)"/>
<path d="M0 0 C0.99 0.33 1.98 0.66 3 1 C2.67 15.85 2.34 30.7 2 46 C1.67 46 1.34 46 1 46 C0.67 30.82 0.34 15.64 0 0 Z " fill="#E55D5E" transform="translate(147,28)"/>
<path d="M0 0 C0.33 0.99 0.66 1.98 1 3 C-0.4317616 3.69937202 -1.87067032 4.38412718 -3.3125 5.0625 C-4.51326172 5.63677734 -4.51326172 5.63677734 -5.73828125 6.22265625 C-8 7 -8 7 -11 6 C-10.34 6 -9.68 6 -9 6 C-9 5.34 -9 4.68 -9 4 C-9.66 3.67 -10.32 3.34 -11 3 C-10.01 2.67 -9.02 2.34 -8 2 C-8.66 1.34 -9.32 0.68 -10 0 C-6.30581799 -1.231394 -3.7943739 -0.64432764 0 0 Z " fill="#AF1738" transform="translate(196,251)"/>
<path d="M0 0 C1.23104155 3.68400584 0.90767252 6.91474976 0.5625 10.75 C0.46066406 11.92046875 0.35882813 13.0909375 0.25390625 14.296875 C0.17011719 15.18890625 0.08632812 16.0809375 0 17 C-0.33 17 -0.66 17 -1 17 C-1.33 13.04 -1.66 9.08 -2 5 C-3.18078125 5.22816406 -4.3615625 5.45632812 -5.578125 5.69140625 C-7.13533463 5.98221046 -8.69263094 6.2725508 -10.25 6.5625 C-11.02730469 6.71396484 -11.80460937 6.86542969 -12.60546875 7.02148438 C-13.35957031 7.16005859 -14.11367187 7.29863281 -14.890625 7.44140625 C-15.58188477 7.57232666 -16.27314453 7.70324707 -16.98535156 7.83813477 C-19.21287942 8.01710362 -20.87506962 7.65206197 -23 7 C-22.00818726 6.78851318 -22.00818726 6.78851318 -20.99633789 6.57275391 C-18.01643571 5.93223625 -15.03951388 5.27880441 -12.0625 4.625 C-11.02158203 4.40328125 -9.98066406 4.1815625 -8.90820312 3.953125 C-7.42416992 3.62441406 -7.42416992 3.62441406 -5.91015625 3.2890625 C-4.99371338 3.09006348 -4.07727051 2.89106445 -3.13305664 2.68603516 C-2.42914795 2.45964355 -1.72523926 2.23325195 -1 2 C-0.67 1.34 -0.34 0.68 0 0 Z " fill="#E82729" transform="translate(125,21)"/>
<path d="M0 0 C0.55558594 0.37511719 1.11117187 0.75023437 1.68359375 1.13671875 C-0.5814559 2.33656672 -2.85230513 3.52166644 -5.12890625 4.69921875 C-5.77150391 5.04146484 -6.41410156 5.38371094 -7.07617188 5.73632812 C-8.7856702 6.61322105 -10.54961919 7.38187492 -12.31640625 8.13671875 C-13.30640625 7.80671875 -14.29640625 7.47671875 -15.31640625 7.13671875 C-12.95659928 4.51385133 -10.49970671 2.95266651 -7.37890625 1.32421875 C-6.52425781 0.86402344 -5.66960937 0.40382813 -4.7890625 -0.0703125 C-2.31640625 -0.86328125 -2.31640625 -0.86328125 0 0 Z " fill="#A7A7A8" transform="translate(87.31640625,14.86328125)"/>
<path d="M0 0 C3.63 0 7.26 0 11 0 C11 0.99 11 1.98 11 3 C7.79619983 5.13586678 6.98060033 5.23132175 3.3125 5.125 C2.10013672 5.09792969 2.10013672 5.09792969 0.86328125 5.0703125 C-0.05904297 5.03550781 -0.05904297 5.03550781 -1 5 C-0.67 3.35 -0.34 1.7 0 0 Z " fill="#E71213" transform="translate(170,144)"/>
<path d="M0 0 C0 0.66 0 1.32 0 2 C4.29 2.33 8.58 2.66 13 3 C13 3.33 13 3.66 13 4 C6.4 4 -0.2 4 -7 4 C-7 3.34 -7 2.68 -7 2 C-7.99 1.67 -8.98 1.34 -10 1 C-6.78548731 -0.60725635 -3.56387464 -0.05748185 0 0 Z " fill="#C7C7C7" transform="translate(139,0)"/>
<path d="M0 0 C0.66 0.33 1.32 0.66 2 1 C1.875 2.75 1.875 2.75 1 5 C-2.54714937 7.82159609 -5.48184545 9.46845241 -10 10 C-3.84965831 2.51708428 -3.84965831 2.51708428 0 0 Z " fill="#F42020" transform="translate(146,74)"/>
<path d="M0 0 C0.33 0 0.66 0 1 0 C0.38577857 7.24781293 -1.52611913 11.24786746 -6 17 C-6.99 16.67 -7.98 16.34 -9 16 C-8.51789063 15.26394531 -8.03578125 14.52789062 -7.5390625 13.76953125 C-6.90742188 12.79371094 -6.27578125 11.81789062 -5.625 10.8125 C-4.99851563 9.84957031 -4.37203125 8.88664063 -3.7265625 7.89453125 C-2.18011688 5.30196064 -1.02491925 2.83146884 0 0 Z " fill="#B71219" transform="translate(228,135)"/>
<path d="M0 0 C3.21764451 4.82646677 4.36261136 10.19821824 4 16 C3.67 15.34 3.34 14.68 3 14 C2.01 13.67 1.02 13.34 0 13 C-1.28571429 4.57142857 -1.28571429 4.57142857 0 0 Z " fill="#932C45" transform="translate(266,101)"/>
<path d="M0 0 C0.66 0 1.32 0 2 0 C1.38153536 2.91819239 0.75551865 5.83441022 0.125 8.75 C-0.04902344 9.575 -0.22304687 10.4 -0.40234375 11.25 C-0.57636719 12.04921875 -0.75039062 12.8484375 -0.9296875 13.671875 C-1.08679199 14.4050293 -1.24389648 15.13818359 -1.40576172 15.89355469 C-2.02941889 18.10428356 -2.91143399 19.98236484 -4 22 C-4.24919576 14.15033361 -3.75922122 7.02879598 0 0 Z " fill="#A97980" transform="translate(12,91)"/>
<path d="M0 0 C7.66795502 2.33937611 14.77137274 5.54768806 22 9 C16.73672991 10.75442336 11.83691737 7.25639702 7 5 C4.59960471 3.74379313 2.31056538 2.41784694 0 1 C0 0.67 0 0.34 0 0 Z " fill="#CF2A44" transform="translate(76,244)"/>
<path d="M0 0 C0.79019531 0.11988281 1.58039063 0.23976562 2.39453125 0.36328125 C2.98621094 0.47027344 3.57789063 0.57726562 4.1875 0.6875 C4.1875 1.0175 4.1875 1.3475 4.1875 1.6875 C1.11132812 1.98046875 1.11132812 1.98046875 -1.96484375 2.2734375 C-2.57457031 2.41007813 -3.18429688 2.54671875 -3.8125 2.6875 C-4.1425 3.3475 -4.4725 4.0075 -4.8125 4.6875 C-10.7525 4.6875 -16.6925 4.6875 -22.8125 4.6875 C-22.8125 4.3575 -22.8125 4.0275 -22.8125 3.6875 C-21.93207031 3.65011719 -21.05164063 3.61273438 -20.14453125 3.57421875 C-18.40236328 3.47560547 -18.40236328 3.47560547 -16.625 3.375 C-15.47644531 3.31699219 -14.32789063 3.25898438 -13.14453125 3.19921875 C-7.97236685 2.40490042 -5.41819489 -0.88955439 0 0 Z " fill="#EE0202" transform="translate(173.8125,144.3125)"/>
<path d="M0 0 C0.66 0.33 1.32 0.66 2 1 C-2.01302932 7.59283388 -2.01302932 7.59283388 -6 9 C-6.99 9.391875 -7.98 9.78375 -9 10.1875 C-12.05981353 11.0161995 -13.08790569 10.88492521 -16 10 C-15.18015625 9.61328125 -14.3603125 9.2265625 -13.515625 8.828125 C-12.43796875 8.30734375 -11.3603125 7.7865625 -10.25 7.25 C-9.18265625 6.73953125 -8.1153125 6.2290625 -7.015625 5.703125 C-4.13305245 4.07514361 -2.19573691 2.45155092 0 0 Z " fill="#C23035" transform="translate(213,157)"/>
<path d="M0 0 C0.66 0.66 1.32 1.32 2 2 C1.96712417 4.72869407 1.43602229 7.2966618 1 10 C0.34 9.34 -0.32 8.68 -1 8 C-1.99 8.33 -2.98 8.66 -4 9 C-3.67 6.36 -3.34 3.72 -3 1 C-2.01 1.33 -1.02 1.66 0 2 C0 1.34 0 0.68 0 0 Z " fill="#961532" transform="translate(269,151)"/>
<path d="M0 0 C0.33 0 0.66 0 1 0 C1.33 7.92 1.66 15.84 2 24 C-0.97 23.01 -3.94 22.02 -7 21 C-3 20 -3 20 -1 20 C-0.67 13.4 -0.34 6.8 0 0 Z " fill="#209FCB" transform="translate(110,71)"/>
<path d="M0 0 C0.66 0.99 1.32 1.98 2 3 C-3.57067277 4.59162079 -8.21101581 5.20674944 -14 5 C-14 4.67 -14 4.34 -14 4 C-12.35 4 -10.7 4 -9 4 C-9 3.34 -9 2.68 -9 2 C-5.89782379 0.16167336 -3.60591321 -0.47446226 0 0 Z " fill="#E14E6C" transform="translate(169,260)"/>
<path d="M0 0 C0.66 0.33 1.32 0.66 2 1 C1.67 6.94 1.34 12.88 1 19 C1.66 19 2.32 19 3 19 C2 22 2 22 -0.0625 23.1875 C-0.701875 23.455625 -1.34125 23.72375 -2 24 C-2 23.01 -2 22.02 -2 21 C-1.34 21 -0.68 21 0 21 C0 14.07 0 7.14 0 0 Z " fill="#F00A0B" transform="translate(150,53)"/>
<path d="M0 0 C-1.59092052 4.13639336 -4.60474918 7.23213248 -8 10 C-8.66 10 -9.32 10 -10 10 C-10 10.66 -10 11.32 -10 12 C-10.66 12 -11.32 12 -12 12 C-10.53033642 8.60140297 -8.61962486 6.35036291 -6 3.75 C-5.29875 3.04359375 -4.5975 2.3371875 -3.875 1.609375 C-2 0 -2 0 0 0 Z " fill="#EDD9DA" transform="translate(147,79)"/>
<path d="M0 0 C-0.74765625 0.24234375 -1.4953125 0.4846875 -2.265625 0.734375 C-3.25046875 1.06953125 -4.2353125 1.4046875 -5.25 1.75 C-6.22453125 2.07484375 -7.1990625 2.3996875 -8.203125 2.734375 C-11.17806959 4.08057897 -12.85504074 5.56904617 -15 8 C-15.99 6.68 -16.98 5.36 -18 4 C-15.75438718 3.13237686 -13.50473745 2.2807897 -11.25 1.4375 C-10.61578125 1.19064453 -9.9815625 0.94378906 -9.328125 0.68945312 C-5.88990821 -0.58197079 -3.47831118 -1.46686355 0 0 Z " fill="#EC5576" transform="translate(106,12)"/>
<path d="M0 0 C4.07376031 1.61010527 6.76507069 4.53822271 9.75 7.625 C10.25660156 8.140625 10.76320313 8.65625 11.28515625 9.1875 C12.52803902 10.45383339 13.76465276 11.7263144 15 13 C11.25983417 13 10.54723807 12.0658409 7.8125 9.625 C7.09707031 8.99851563 6.38164063 8.37203125 5.64453125 7.7265625 C4 6 4 6 4 4 C3.01 3.67 2.02 3.34 1 3 C0.67 2.01 0.34 1.02 0 0 Z " fill="#E3BAC1" transform="translate(36,218)"/>
<path d="M0 0 C0.33 0.99 0.66 1.98 1 3 C-2.21451269 4.60725635 -5.43612536 4.05748185 -9 4 C-9 3.01 -9 2.02 -9 1 C-5.92677456 0.08941469 -3.19902639 -0.08886184 0 0 Z " fill="#D63055" transform="translate(177,258)"/>
<path d="M0 0 C-1 2 -1 2 -3.1796875 2.921875 C-4.06914062 3.19515625 -4.95859375 3.4684375 -5.875 3.75 C-7.20144531 4.17539062 -7.20144531 4.17539062 -8.5546875 4.609375 C-11 5 -11 5 -14 3 C-4.58997722 -0.44419134 -4.58997722 -0.44419134 0 0 Z " fill="#A80E1F" transform="translate(189,252)"/>
<path d="M0 0 C3 3 3 3 3.07421875 5.69921875 C2.94660156 6.68535156 2.81898437 7.67148438 2.6875 8.6875 C2.50767578 10.17830078 2.50767578 10.17830078 2.32421875 11.69921875 C2.21722656 12.45847656 2.11023438 13.21773437 2 14 C1.34 14 0.68 14 0 14 C0 9.38 0 4.76 0 0 Z " fill="#B80213" transform="translate(15,128)"/>
<path d="M0 0 C0.66 0.99 1.32 1.98 2 3 C1.3203125 5.26171875 1.3203125 5.26171875 0.125 7.6875 C-0.26429688 8.49574219 -0.65359375 9.30398437 -1.0546875 10.13671875 C-1.52261719 11.05904297 -1.52261719 11.05904297 -2 12 C-2.33 11.34 -2.66 10.68 -3 10 C-3.66 9.67 -4.32 9.34 -5 9 C-3.35 6.03 -1.7 3.06 0 0 Z " fill="#F73B3C" transform="translate(131,91)"/>
<path d="M0 0 C3.63 0.66 7.26 1.32 11 2 C11 1.34 11 0.68 11 0 C12.32 0 13.64 0 15 0 C14.67 1.32 14.34 2.64 14 4 C12.04020573 3.71831703 10.08217622 3.42433283 8.125 3.125 C6.48917969 2.88136719 6.48917969 2.88136719 4.8203125 2.6328125 C2 2 2 2 0 0 Z " fill="#C93142" transform="translate(98,254)"/>
<path d="M0 0 C1.32 0.33 2.64 0.66 4 1 C3.67 2.65 3.34 4.3 3 6 C1.02 6 -0.96 6 -3 6 C-2.34 5.34 -1.68 4.68 -1 4 C-1.33 3.34 -1.66 2.68 -2 2 C-1.34 2 -0.68 2 0 2 C0 1.34 0 0.68 0 0 Z " fill="#E20708" transform="translate(181,143)"/>
<path d="M0 0 C1.70884005 1.62339805 3.37446717 3.29319053 5 5 C5 5.66 5 6.32 5 7 C5.66 7 6.32 7 7 7 C8.625 9 8.625 9 10 11 C9.67 11.66 9.34 12.32 9 13 C5.74673521 9.83710367 2.63274608 6.70534633 0 3 C0 2.01 0 1.02 0 0 Z " fill="#8A2B3F" transform="translate(242,57)"/>
<path d="M0 0 C-0.33 0.99 -0.66 1.98 -1 3 C-4.4375 4.25 -4.4375 4.25 -8 5 C-8.66 4.67 -9.32 4.34 -10 4 C-10 3.34 -10 2.68 -10 2 C-3.375 0 -3.375 0 0 0 Z " fill="#AEADAD" transform="translate(97,11)"/>
<path d="M0 0 C0.1875 3.375 0.1875 3.375 0 7 C-0.99 7.66 -1.98 8.32 -3 9 C-3.33 6.69 -3.66 4.38 -4 2 C-1 0 -1 0 0 0 Z " fill="#BEBEBE" transform="translate(7,103)"/>
<path d="M0 0 C1.2065625 0.0309375 1.2065625 0.0309375 2.4375 0.0625 C2.7675 1.3825 3.0975 2.7025 3.4375 4.0625 C-0.1925 3.7325 -3.8225 3.4025 -7.5625 3.0625 C-6.2425 2.4025 -4.9225 1.7425 -3.5625 1.0625 C-2.5625 0.0625 -2.5625 0.0625 0 0 Z " fill="#C5C5C5" transform="translate(162.5625,1.9375)"/>
<path d="M0 0 C2.125 0.9375 2.125 0.9375 4 2 C1.6875 4.0625 1.6875 4.0625 -1 6 C-1.99 5.67 -2.98 5.34 -4 5 C-2.25 1.125 -2.25 1.125 0 0 Z " fill="#930E30" transform="translate(208,243)"/>
<path d="M0 0 C3 2 3 2 3.6875 5.125 C3.8421875 6.548125 3.8421875 6.548125 4 8 C3.01 8.66 2.02 9.32 1 10 C0.67 6.7 0.34 3.4 0 0 Z " fill="#A4A2A3" transform="translate(4,150)"/>
<path d="M0 0 C0.66 0.33 1.32 0.66 2 1 C1.04882866 2.1725131 0.08882991 3.33787015 -0.875 4.5 C-1.40867188 5.1496875 -1.94234375 5.799375 -2.4921875 6.46875 C-2.98976562 6.9740625 -3.48734375 7.479375 -4 8 C-4.66 8 -5.32 8 -6 8 C-6 8.66 -6 9.32 -6 10 C-6.66 10 -7.32 10 -8 10 C-6.34908222 5.70761377 -3.26245434 3.1206085 0 0 Z " fill="#EDD4D5" transform="translate(162,101)"/>
<path d="M0 0 C0 0.66 0 1.32 0 2 C-4.01804691 2.84098656 -7.01803543 3.05404945 -11 2 C-11 1.67 -11 1.34 -11 1 C-3.375 -1.125 -3.375 -1.125 0 0 Z " fill="#C93236" transform="translate(197,169)"/>
<path d="M0 0 C0 0.66 0 1.32 0 2 C-1.8125 3.0625 -1.8125 3.0625 -4 4 C-4.99 3.67 -5.98 3.34 -7 3 C-6.34 3 -5.68 3 -5 3 C-5 2.34 -5 1.68 -5 1 C-5.66 0.67 -6.32 0.34 -7 0 C-3.86650268 -1.04449911 -3.01031744 -0.93423645 0 0 Z " fill="#B91841" transform="translate(192,254)"/>
<path d="M0 0 C1.32 0.66 2.64 1.32 4 2 C3.67 2.99 3.34 3.98 3 5 C0.4375 6.1875 0.4375 6.1875 -2 7 C-1.34 4.69 -0.68 2.38 0 0 Z " fill="#B0B0B0" transform="translate(64,20)"/>
<path d="M0 0 C4.21912747 0.4794463 6.79663178 1.16625119 10 4 C6.53058454 3.54177532 3.32604951 3.10868317 0 2 C0 1.34 0 0.68 0 0 Z " fill="#E9B6B7" transform="translate(193,70)"/>
<path d="M0 0 C0 0.99 0 1.98 0 3 C-1.8125 4.0625 -1.8125 4.0625 -4 5 C-4.99 4.67 -5.98 4.34 -7 4 C-3.17391304 0 -3.17391304 0 0 0 Z " fill="#A69FA0" transform="translate(79,18)"/>
<path d="M0 0 C2.375 -0.1875 2.375 -0.1875 5 0 C5.66 0.99 6.32 1.98 7 3 C4.36 3.33 1.72 3.66 -1 4 C-0.67 2.68 -0.34 1.36 0 0 Z " fill="#E03E60" transform="translate(164,260)"/>
<path d="M0 0 C0.66 0 1.32 0 2 0 C1.25 2.9375 1.25 2.9375 0 6 C-2.125 6.875 -2.125 6.875 -4 7 C-2.68 4.69 -1.36 2.38 0 0 Z " fill="#BC2A2E" transform="translate(223,145)"/>
<path d="M0 0 C0.33 0 0.66 0 1 0 C1 1.98 1 3.96 1 6 C-0.32 5.67 -1.64 5.34 -3 5 C-1.125 1.125 -1.125 1.125 0 0 Z " fill="#BEBEBD" transform="translate(8,96)"/>
<path d="M0 0 C0.99 0.33 1.98 0.66 3 1 C2.67 5.29 2.34 9.58 2 14 C1.67 14 1.34 14 1 14 C0.67 9.38 0.34 4.76 0 0 Z " fill="#E65254" transform="translate(147,28)"/>
<path d="M0 0 C2 1 2 1 2 1 Z " fill="#5F5F5F" transform="translate(207,260)"/>
<path d="" fill="#000000" transform="translate(0,0)"/>
<path d="" fill="#000000" transform="translate(0,0)"/>
<path d="" fill="#000000" transform="translate(0,0)"/>
<path d="" fill="#FFFFFF" transform="translate(0,0)"/>
<path d="" fill="#FFFFFF" transform="translate(0,0)"/>
<path d="" fill="#000000" transform="translate(0,0)"/>
<path d="" fill="#FFFFFF" transform="translate(0,0)"/>
<path d="" fill="#FFFFFF" transform="translate(0,0)"/>
<path d="" fill="#7F7F7F" transform="translate(0,0)"/>
<path d="" fill="#AAAAAA" transform="translate(0,0)"/>
<path d="" fill="#000000" transform="translate(0,0)"/>
<path d="" fill="#000000" transform="translate(0,0)"/>
<path d="" fill="#AAAAAA" transform="translate(0,0)"/>
<path d="" fill="#FFFFFF" transform="translate(0,0)"/>
<path d="" fill="#FFFFFF" transform="translate(0,0)"/>
<path d="" fill="#FFFFFF" transform="translate(0,0)"/>
<path d="" fill="#7F7F7F" transform="translate(0,0)"/>
<path d="" fill="#AAAAAA" transform="translate(0,0)"/>
<path d="" fill="#000000" transform="translate(0,0)"/>
<path d="" fill="#B6B6B6" transform="translate(0,0)"/>
<path d="" fill="#BFBFBF" transform="translate(0,0)"/>
<path d="" fill="#CCCCCC" transform="translate(0,0)"/>
<path d="" fill="#7F7F7F" transform="translate(0,0)"/>
<path d="" fill="#999999" transform="translate(0,0)"/>
<path d="" fill="#000000" transform="translate(0,0)"/>
<path d="" fill="#CCCCCC" transform="translate(0,0)"/>
<path d="" fill="#555555" transform="translate(0,0)"/>
<path d="" fill="#B6B6B6" transform="translate(0,0)"/>
<path d="" fill="#FFFFFF" transform="translate(0,0)"/>
<path d="" fill="#BFBFBF" transform="translate(0,0)"/>
<path d="" fill="#AAAAAA" transform="translate(0,0)"/>
<path d="" fill="#7F7F7F" transform="translate(0,0)"/>
<path d="" fill="#FFFFFF" transform="translate(0,0)"/>
<path d="" fill="#AAAAAA" transform="translate(0,0)"/>
<path d="" fill="#AAAAAA" transform="translate(0,0)"/>
<path d="" fill="#AAAAAA" transform="translate(0,0)"/>
<path d="" fill="#AAAAAA" transform="translate(0,0)"/>
<path d="" fill="#AAAAAA" transform="translate(0,0)"/>
<path d="" fill="#7F7F7F" transform="translate(0,0)"/>
<path d="" fill="#7F7F7F" transform="translate(0,0)"/>
<path d="" fill="#AAAAAA" transform="translate(0,0)"/>
<path d="" fill="#CCCCCC" transform="translate(0,0)"/>
<path d="" fill="#9F9F9F" transform="translate(0,0)"/>
<path d="" fill="#999999" transform="translate(0,0)"/>
<path d="" fill="#AAAAAA" transform="translate(0,0)"/>
<path d="" fill="#AAAAAA" transform="translate(0,0)"/>
<path d="" fill="#999999" transform="translate(0,0)"/>
<path d="" fill="#FFFFFF" transform="translate(0,0)"/>
<path d="" fill="#000000" transform="translate(0,0)"/>
<path d="" fill="#999999" transform="translate(0,0)"/>
<path d="" fill="#AAAAAA" transform="translate(0,0)"/>
<path d="" fill="#7F7F7F" transform="translate(0,0)"/>
<path d="" fill="#7F7F7F" transform="translate(0,0)"/>
<path d="" fill="#7F7F7F" transform="translate(0,0)"/>
<path d="" fill="#CCCCCC" transform="translate(0,0)"/>
<path d="" fill="#FFFFFF" transform="translate(0,0)"/>
<path d="" fill="#555555" transform="translate(0,0)"/>
<path d="" fill="#7F7F7F" transform="translate(0,0)"/>
<path d="" fill="#AAAAAA" transform="translate(0,0)"/>
<path d="" fill="#FFFFFF" transform="translate(0,0)"/>
<path d="" fill="#000000" transform="translate(0,0)"/>
<path d="" fill="#BFBFBF" transform="translate(0,0)"/>
<path d="" fill="#AAAAAA" transform="translate(0,0)"/>
<path d="" fill="#7F7F7F" transform="translate(0,0)"/>
<path d="" fill="#AAAAAA" transform="translate(0,0)"/>
<path d="" fill="#555555" transform="translate(0,0)"/>
<path d="" fill="#AAAAAA" transform="translate(0,0)"/>
<path d="" fill="#FFFFFF" transform="translate(0,0)"/>
<path d="" fill="#CCCCCC" transform="translate(0,0)"/>
<path d="" fill="#7F7F7F" transform="translate(0,0)"/>
<path d="" fill="#AAAAAA" transform="translate(0,0)"/>
<path d="" fill="#AAAAAA" transform="translate(0,0)"/>
<path d="" fill="#999999" transform="translate(0,0)"/>
<path d="" fill="#FFFFFF" transform="translate(0,0)"/>
<path d="" fill="#FFFFFF" transform="translate(0,0)"/>
<path d="" fill="#AAAAAA" transform="translate(0,0)"/>
<path d="" fill="#AAAAAA" transform="translate(0,0)"/>
<path d="" fill="#7F7F7F" transform="translate(0,0)"/>
<path d="" fill="#999999" transform="translate(0,0)"/>
<path d="" fill="#BFBFBF" transform="translate(0,0)"/>
<path d="" fill="#999999" transform="translate(0,0)"/>
<path d="" fill="#BFBFBF" transform="translate(0,0)"/>
<path d="" fill="#AAAAAA" transform="translate(0,0)"/>
<path d="" fill="#BFBFBF" transform="translate(0,0)"/>
<path d="" fill="#000000" transform="translate(0,0)"/>
<path d="" fill="#FFFFFF" transform="translate(0,0)"/>
<path d="" fill="#D5D5D5" transform="translate(0,0)"/>
<path d="" fill="#999999" transform="translate(0,0)"/>
<path d="" fill="#999999" transform="translate(0,0)"/>
<path d="" fill="#555555" transform="translate(0,0)"/>
<path d="" fill="#AAAAAA" transform="translate(0,0)"/>
<path d="" fill="#000000" transform="translate(0,0)"/>
<path d="" fill="#000000" transform="translate(0,0)"/>
<path d="" fill="#BFBFBF" transform="translate(0,0)"/>
<path d="" fill="#7F7F7F" transform="translate(0,0)"/>
<path d="" fill="#000000" transform="translate(0,0)"/>
<path d="" fill="#000000" transform="translate(0,0)"/>
<path d="" fill="#7F7F7F" transform="translate(0,0)"/>
<path d="" fill="#FFFFFF" transform="translate(0,0)"/>
<path d="" fill="#000000" transform="translate(0,0)"/>
<path d="" fill="#FFFFFF" transform="translate(0,0)"/>
<path d="" fill="#7F7F7F" transform="translate(0,0)"/>
<path d="" fill="#7F7F7F" transform="translate(0,0)"/>
<path d="" fill="#FFFFFF" transform="translate(0,0)"/>
<path d="" fill="#7F7F7F" transform="translate(0,0)"/>
<path d="" fill="#7F7F7F" transform="translate(0,0)"/>
<path d="" fill="#000000" transform="translate(0,0)"/>
<path d="" fill="#000000" transform="translate(0,0)"/>
</svg>
