<?xml version="1.0" encoding="utf-8"?>
<!-- Generator: Adobe Illustrator 23.0.1, SVG Export Plug-In . SVG Version: 6.00 Build 0)  -->
<svg version="1.1" id="Layer_1" xmlns="http://www.w3.org/2000/svg" xmlns:xlink="http://www.w3.org/1999/xlink" x="0px" y="0px"
	 viewBox="0 0 202 47" style="enable-background:new 0 0 202 47;" xml:space="preserve">
<style type="text/css">
	.st0{fill:#E14756;}
	.st1{fill:#FC8F2B;}
	.st2{fill:#DD2EAF;}
	.st3{fill:#D7122E;}
	.st4{fill:#472D7F;}
	.st5{fill:#62CFD8;}
	.st6{fill:#36B0E2;}
	.st7{fill:#035381;}
	.st8{fill:url(#SVGID_1_);}
	.st9{fill:#2E7D32;}
	.st10{font-family:'MyriadPro-Regular';}
	.st11{font-size:19.932px;}
</style>
<g>
	<title>goalTracker1</title>
	<g id="OBJECTS_1_">
		<path class="st0" d="M25.6,12.1V1.3c-5.9,0-11.5,2.3-15.6,6.5l7.6,7.6C19.7,13.3,22.6,12.1,25.6,12.1z"/>
		<path class="st1" d="M36.8,23.4h10.8c0-5.9-2.3-11.5-6.5-15.7l-7.6,7.6C35.7,17.5,36.9,20.4,36.8,23.4z"/>
		<path class="st2" d="M17.6,15.4L10,7.8c-4.1,4.1-6.5,9.8-6.5,15.7h10.8C14.3,20.4,15.4,17.5,17.6,15.4z"/>
		<path class="st3" d="M33.5,15.4l7.6-7.6C37,3.6,31.4,1.3,25.6,1.3v10.8C28.6,12.1,31.4,13.3,33.5,15.4z"/>
		<path class="st4" d="M14.3,23.4H3.5c0,5.9,2.3,11.5,6.5,15.7l7.6-7.6C15.4,29.3,14.3,26.4,14.3,23.4z"/>
		<path class="st5" d="M36.8,23.4c0,3-1.2,5.9-3.3,8l7.6,7.6c4.1-4.1,6.5-9.8,6.5-15.7H36.8z"/>
		<path class="st6" d="M25.6,34.7v10.8c5.9,0,11.5-2.3,15.6-6.5l-7.6-7.6C31.4,33.5,28.6,34.7,25.6,34.7z"/>
		<path class="st7" d="M17.6,31.4L10,39.1c4.1,4.2,9.7,6.5,15.6,6.5V34.7C22.6,34.7,19.7,33.6,17.6,31.4z"/>
		
			<radialGradient id="SVGID_1_" cx="-27.1605" cy="753.5432" r="14.4854" gradientTransform="matrix(0.9965 0 0 -1 52.6194 776.95)" gradientUnits="userSpaceOnUse">
			<stop  offset="4.000000e-02" style="stop-color:#D6D7DB"/>
			<stop  offset="0.55" style="stop-color:#ECECEE"/>
			<stop  offset="1" style="stop-color:#F5F5F6"/>
		</radialGradient>
		<path class="st8" d="M35.8,13.2c-5.6-5.7-14.8-5.7-20.4,0s-5.6,14.8,0,20.5s14.8,5.7,20.4,0c2.7-2.7,4.2-6.4,4.2-10.2
			C40,19.6,38.5,15.9,35.8,13.2z"/>
	</g>
	<g id="Layer_3_2_">
		<polygon class="st9" points="31.6,12.8 30.3,13.3 31,13.9 26.3,19.6 22.8,16.6 16.7,23.9 17.4,24.5 22.9,17.9 26.3,20.8 
			26.4,20.9 31.7,14.5 32.4,15.1 32.7,13.7 33,12.3 		"/>
		<rect x="18.5" y="25.2" class="st9" width="2.8" height="8.3"/>
		<rect x="22.4" y="20.5" class="st9" width="2.8" height="13.2"/>
		<rect x="26.2" y="22.5" class="st9" width="2.8" height="11.2"/>
		<rect x="30.1" y="18" class="st9" width="2.8" height="15.7"/>
	</g>
</g>
<text transform="matrix(0.9966 0 0 1 52.2271 31.4219)"><tspan x="0" y="0" class="st0 st10 st11">G</tspan><tspan x="13.5" y="0" class="st1 st10 st11">O</tspan><tspan x="27.8" y="0" class="st3 st10 st11">A</tspan><tspan x="40.6" y="0" class="st9 st10 st11">L</tspan><tspan x="50.6" y="0" class="st7 st10 st11">S</tspan><tspan x="61" y="0" class="st10 st11"> </tspan><tspan x="65.9" y="0" class="st4 st10 st11">T</tspan><tspan x="76.4" y="0" class="st2 st10 st11">R</tspan><tspan x="87.7" y="0" class="st3 st10 st11">A</tspan><tspan x="100.5" y="0" class="st0 st10 st11">C</tspan><tspan x="112.6" y="0" class="st4 st10 st11">K</tspan><tspan x="124" y="0" class="st1 st10 st11">E</tspan><tspan x="134.4" y="0" class="st2 st10 st11">R </tspan></text>
</svg>
