<svg xmlns="http://www.w3.org/2000/svg" xmlns:xlink="http://www.w3.org/1999/xlink" viewBox="0 0 464.31 464.31"><defs><style>.cls-1{fill:#e14756;}.cls-2{fill:#fc8f2b;}.cls-3{fill:#dd2eaf;}.cls-4{fill:url(#Degradado_sin_nombre_6);}.cls-5{fill:#472d7f;}.cls-6{fill:#62cfd8;}.cls-7{fill:#36b0e2;}.cls-8{fill:#035381;}.cls-9{fill:url(#radial-gradient);}.cls-10{fill:#2e7d32;}</style><radialGradient id="Degradado_sin_nombre_6" cx="480.43" cy="245.6" r="78.17" gradientUnits="userSpaceOnUse"><stop offset="0" stop-color="#d4102b"/><stop offset="0.3" stop-color="#d7132e"/><stop offset="0.57" stop-color="#e01d39"/><stop offset="0.82" stop-color="#ef2d4b"/><stop offset="1" stop-color="#ff3e5d"/></radialGradient><radialGradient id="radial-gradient" cx="398.35" cy="403.71" r="151.92" gradientUnits="userSpaceOnUse"><stop offset="0.04" stop-color="#d6d7db"/><stop offset="0.55" stop-color="#ececee"/><stop offset="1" stop-color="#f5f5f6"/></radialGradient></defs><title>goalTracker1</title><g id="OBJECTS"><path class="cls-1" d="M398.35,284.82V171.55a231.45,231.45,0,0,0-164.16,68l80.1,80.09A118.51,118.51,0,0,1,398.35,284.82Z" transform="translate(-166.2 -171.55)"/><path class="cls-2" d="M517.24,403.71H630.51a231.44,231.44,0,0,0-68-164.16l-80.09,80.09A118.55,118.55,0,0,1,517.24,403.71Z" transform="translate(-166.2 -171.55)"/><path class="cls-3" d="M314.29,319.64l-80.1-80.09a231.43,231.43,0,0,0-68,164.16H279.47A118.51,118.51,0,0,1,314.29,319.64Z" transform="translate(-166.2 -171.55)"/><path class="cls-4" d="M482.42,319.64l80.09-80.09a231.44,231.44,0,0,0-164.16-68V284.82A118.55,118.55,0,0,1,482.42,319.64Z" transform="translate(-166.2 -171.55)"/><path class="cls-5" d="M279.47,403.71H166.2a231.44,231.44,0,0,0,68,164.16l80.1-80.1A118.47,118.47,0,0,1,279.47,403.71Z" transform="translate(-166.2 -171.55)"/><path class="cls-6" d="M517.24,403.71a118.51,118.51,0,0,1-34.82,84.06l80.09,80.1a231.45,231.45,0,0,0,68-164.16Z" transform="translate(-166.2 -171.55)"/><path class="cls-7" d="M398.35,522.59V635.86a231.43,231.43,0,0,0,164.16-68l-80.09-80.1A118.51,118.51,0,0,1,398.35,522.59Z" transform="translate(-166.2 -171.55)"/><path class="cls-8" d="M314.29,487.77l-80.1,80.1a231.44,231.44,0,0,0,164.16,68V522.59A118.47,118.47,0,0,1,314.29,487.77Z" transform="translate(-166.2 -171.55)"/><path class="cls-9" d="M505.78,296.28a151.94,151.94,0,1,0,44.49,107.43A151.48,151.48,0,0,0,505.78,296.28Z" transform="translate(-166.2 -171.55)"/></g><g id="Layer_3" data-name="Layer 3"><polygon class="cls-10" points="296.3 120.86 282.51 126.19 289.73 132.24 239.93 191.76 203.21 161.04 139 237.78 146.51 244.05 204.44 174.82 240.23 204.78 241.15 205.54 297.24 138.51 304.47 144.56 307.28 130.05 310.09 115.54 296.3 120.86"/><rect class="cls-10" x="157.86" y="251.33" width="29.12" height="87.45"/><rect class="cls-10" x="198.51" y="201.56" width="29.12" height="138.18"/><rect class="cls-10" x="239.23" y="222.38" width="29.12" height="117.36"/><rect class="cls-10" x="279.95" y="175.58" width="29.12" height="164.17"/></g></svg>