<svg width="800" height="800" viewBox="0 0 800 800" fill="none" xmlns="http://www.w3.org/2000/svg">
<mask id="mask0_206_274" style="mask-type:luminance" maskUnits="userSpaceOnUse" x="6" y="125" width="788" height="550">
<path d="M6.39062 125H793.594V675H6.39062V125Z" fill="white"/>
</mask>
<g mask="url(#mask0_206_274)">
<path d="M496.047 179C520.773 179 541 198.866 541 223.151V311.876H403.82L400.304 529.729H362.665L130.863 645L251.99 529.729H106.514C81.7875 529.729 61.5608 509.863 61.5605 485.578L61.5576 223.151C61.5576 198.866 81.7844 179 106.511 179H496.047ZM245.27 429.793L381.484 342.866L245.27 255.939V429.793Z" fill="#A62128"/>
<path d="M532.015 295.453H773.922L773.91 295.458C784.568 295.458 793.588 304.479 793.588 315.136L793.582 573.448C793.582 584.106 784.567 593.127 773.904 593.127H681.246C670.589 593.127 661.568 584.111 661.568 573.448C661.568 562.791 670.584 553.77 681.246 553.77H755.043V334.005H422.95V553.755H564.814C568.097 553.755 572.199 554.573 575.476 557.032L692.737 638.215C701.758 644.776 703.394 656.257 697.657 665.278C691.096 674.299 679.615 675.934 670.594 670.197L558.254 592.292H403.272C392.615 592.292 383.594 583.277 383.594 572.614V509.474L383.595 470.938V315.139C383.595 304.482 392.611 295.461 403.273 295.461H493.472L532.015 295.453Z" fill="#A62128"/>
</g>
<path d="M613 447C613 431.048 599.952 418 584 418C568.048 418 555 431.048 555 447C555 462.952 568.048 476 584 476C599.946 476 613 462.952 613 447Z" fill="#A62128"/>
<path d="M468 447C468 462.952 481.048 476 497 476C512.952 476 526 462.952 526 447C526 431.048 512.952 418 497 418C481.048 418 468 431.048 468 447Z" fill="#A62128"/>
<path d="M700 447C700 431.048 686.952 418 671 418C655.048 418 642 431.048 642 447C642 462.952 655.048 476 671 476C686.946 476 700 462.952 700 447Z" fill="#A62128"/>
</svg>
