<svg width="800" height="800" viewBox="0 0 800 800" fill="none" xmlns="http://www.w3.org/2000/svg">
<path d="M200 266.667H333.333V133.333H100C91.1595 133.333 82.6811 136.845 76.4299 143.096C70.1786 149.348 66.6667 157.826 66.6667 166.667V700C66.7859 708.467 70.1229 716.571 76.0001 722.667L200 600V266.667Z" fill="#F38630"/>
<path d="M533.333 600L657.333 724C660.403 720.818 662.809 717.058 664.411 712.938C666.014 708.817 666.78 704.419 666.667 700V466.667H533.333V600Z" fill="#F9C095"/>
<path d="M723.667 76L600 200V333.333H733.333V100C733.403 95.5573 732.584 91.1454 730.924 87.0239C729.264 82.9023 726.796 79.1542 723.667 76Z" fill="#F59C58"/>
<path d="M600 200L724 76C720.818 72.9305 717.058 70.5246 712.938 68.9222C708.817 67.3199 704.42 66.5532 700 66.6667H466.667V200H600Z" fill="#F38630"/>
<path d="M126 720L267.889 563H469.111L607 720H126Z" fill="#F59C58"/>
</svg>
