<svg width="132" height="95" viewBox="0 0 132 95" fill="none" xmlns="http://www.w3.org/2000/svg">
<path d="M92.5675 34.6436L105.233 47.3137L92.5631 59.9793L79.8975 47.3092L92.5675 34.6436Z" fill="#245DF5"/>
<path d="M64.4738 34.6436L77.1395 47.3137L64.4694 59.9793L51.8038 47.3092L64.4738 34.6436Z" fill="#3C72F8"/>
<path fill-rule="evenodd" clip-rule="evenodd" d="M84.697 12.7221L119.22 47.3139L78.3374 88.2668L84.697 94.6278L85.0604 94.2038L132 47.3139L84.697 0V12.7221Z" fill="#0C43F1"/>
<path d="M67.3175 23.9214L45.637 2.15607L23.9564 23.9214L45.637 45.7567L67.3175 23.9214Z" fill="#6B99FD"/>
<path d="M43.1215 48.1524L21.5608 26.3521L-3.44179e-06 48.1524L21.5608 69.9527L43.1215 48.1524Z" fill="#3C72F8"/>
<path d="M67.3175 72.3485L45.637 50.5482L23.9564 72.3485L45.637 94.1488L67.3175 72.3485Z" fill="#6B99FD"/>
</svg>
